<?xml version="1.0" encoding="us-ascii" standalone="no"?><svg xmlns="http://www.w3.org/2000/svg" xmlns:xlink="http://www.w3.org/1999/xlink" contentStyleType="text/css" height="235px" preserveAspectRatio="none" style="width:362px;height:235px;background:#FFFFFF;" version="1.1" viewBox="0 0 362 235" width="362px" zoomAndPan="magnify"><defs/><g><!--class Dimension--><g id="elem_Dimension"><rect codeLine="3" fill="#F1F1F1" height="32" id="Dimension" rx="2.5" ry="2.5" style="stroke:#181818;stroke-width:0.5;" width="106" x="26.5" y="7"/><ellipse cx="41.5" cy="23" fill="#ADD1B2" rx="11" ry="11" style="stroke:#181818;stroke-width:1.0;"/><path d="M44.4688,28.6406 Q43.8906,28.9375 43.25,29.0781 Q42.6094,29.2344 41.9063,29.2344 Q39.4063,29.2344 38.0781,27.5938 Q36.7656,25.9375 36.7656,22.8125 Q36.7656,19.6875 38.0781,18.0313 Q39.4063,16.375 41.9063,16.375 Q42.6094,16.375 43.25,16.5313 Q43.9063,16.6875 44.4688,16.9844 L44.4688,19.7031 Q43.8438,19.125 43.25,18.8594 Q42.6563,18.5781 42.0313,18.5781 Q40.6875,18.5781 40,19.6563 Q39.3125,20.7188 39.3125,22.8125 Q39.3125,24.9063 40,25.9844 Q40.6875,27.0469 42.0313,27.0469 Q42.6563,27.0469 43.25,26.7813 Q43.8438,26.5 44.4688,25.9219 L44.4688,28.6406 Z " fill="#000000"/><text fill="#000000" font-family="sans-serif" font-size="14" lengthAdjust="spacing" textLength="74" x="55.5" y="27.8467">Dimension</text></g><!--class Cost--><g id="elem_Cost"><rect codeLine="7" fill="#F1F1F1" height="32" id="Cost" rx="2.5" ry="2.5" style="stroke:#181818;stroke-width:0.5;" width="64" x="167.5" y="7"/><ellipse cx="182.5" cy="23" fill="#ADD1B2" rx="11" ry="11" style="stroke:#181818;stroke-width:1.0;"/><path d="M185.4688,28.6406 Q184.8906,28.9375 184.25,29.0781 Q183.6094,29.2344 182.9063,29.2344 Q180.4063,29.2344 179.0781,27.5938 Q177.7656,25.9375 177.7656,22.8125 Q177.7656,19.6875 179.0781,18.0313 Q180.4063,16.375 182.9063,16.375 Q183.6094,16.375 184.25,16.5313 Q184.9063,16.6875 185.4688,16.9844 L185.4688,19.7031 Q184.8438,19.125 184.25,18.8594 Q183.6563,18.5781 183.0313,18.5781 Q181.6875,18.5781 181,19.6563 Q180.3125,20.7188 180.3125,22.8125 Q180.3125,24.9063 181,25.9844 Q181.6875,27.0469 183.0313,27.0469 Q183.6563,27.0469 184.25,26.7813 Q184.8438,26.5 185.4688,25.9219 L185.4688,28.6406 Z " fill="#000000"/><text fill="#000000" font-family="sans-serif" font-size="14" lengthAdjust="spacing" textLength="32" x="196.5" y="27.8467">Cost</text></g><!--class Flooring--><g id="elem_Flooring"><rect codeLine="11" fill="#F1F1F1" height="72.5938" id="Flooring" rx="2.5" ry="2.5" style="stroke:#181818;stroke-width:0.5;" width="145" x="7" y="127"/><ellipse cx="48.1" cy="143" fill="#ADD1B2" rx="11" ry="11" style="stroke:#181818;stroke-width:1.0;"/><path d="M51.0688,148.6406 Q50.4906,148.9375 49.85,149.0781 Q49.2094,149.2344 48.5063,149.2344 Q46.0063,149.2344 44.6781,147.5938 Q43.3656,145.9375 43.3656,142.8125 Q43.3656,139.6875 44.6781,138.0313 Q46.0063,136.375 48.5063,136.375 Q49.2094,136.375 49.85,136.5313 Q50.5063,136.6875 51.0688,136.9844 L51.0688,139.7031 Q50.4438,139.125 49.85,138.8594 Q49.2563,138.5781 48.6313,138.5781 Q47.2875,138.5781 46.6,139.6563 Q45.9125,140.7188 45.9125,142.8125 Q45.9125,144.9063 46.6,145.9844 Q47.2875,147.0469 48.6313,147.0469 Q49.2563,147.0469 49.85,146.7813 Q50.4438,146.5 51.0688,145.9219 L51.0688,148.6406 Z " fill="#000000"/><text fill="#000000" font-family="sans-serif" font-size="14" lengthAdjust="spacing" textLength="55" x="67.9" y="147.8467">Flooring</text><line style="stroke:#181818;stroke-width:0.5;" x1="8" x2="151" y1="159" y2="159"/><text fill="#000000" font-family="sans-serif" font-size="14" lengthAdjust="spacing" textLength="114" x="13" y="175.9951">type: str = None</text><text fill="#000000" font-family="sans-serif" font-size="14" lengthAdjust="spacing" textLength="133" x="13" y="192.292">unit_cost: Cost = 0</text></g><!--class Room--><g id="elem_Room"><rect codeLine="16" fill="#F1F1F1" height="129.4844" id="Room" rx="2.5" ry="2.5" style="stroke:#181818;stroke-width:0.5;" width="168" x="187.5" y="99"/><ellipse cx="246.75" cy="115" fill="#ADD1B2" rx="11" ry="11" style="stroke:#181818;stroke-width:1.0;"/><path d="M249.7188,120.6406 Q249.1406,120.9375 248.5,121.0781 Q247.8594,121.2344 247.1563,121.2344 Q244.6563,121.2344 243.3281,119.5938 Q242.0156,117.9375 242.0156,114.8125 Q242.0156,111.6875 243.3281,110.0313 Q244.6563,108.375 247.1563,108.375 Q247.8594,108.375 248.5,108.5313 Q249.1563,108.6875 249.7188,108.9844 L249.7188,111.7031 Q249.0938,111.125 248.5,110.8594 Q247.9063,110.5781 247.2813,110.5781 Q245.9375,110.5781 245.25,111.6563 Q244.5625,112.7188 244.5625,114.8125 Q244.5625,116.9063 245.25,117.9844 Q245.9375,119.0469 247.2813,119.0469 Q247.9063,119.0469 248.5,118.7813 Q249.0938,118.5 249.7188,117.9219 L249.7188,120.6406 Z " fill="#000000"/><text fill="#000000" font-family="sans-serif" font-size="14" lengthAdjust="spacing" textLength="41" x="267.25" y="119.8467">Room</text><line style="stroke:#181818;stroke-width:0.5;" x1="188.5" x2="354.5" y1="131" y2="131"/><text fill="#000000" font-family="sans-serif" font-size="14" lengthAdjust="spacing" textLength="96" x="193.5" y="147.9951">name: str = ""</text><text fill="#000000" font-family="sans-serif" font-size="14" lengthAdjust="spacing" textLength="156" x="193.5" y="164.292">length: Dimension = 1</text><text fill="#000000" font-family="sans-serif" font-size="14" lengthAdjust="spacing" textLength="149" x="193.5" y="180.5889">width: Dimension = 1</text><text fill="#000000" font-family="sans-serif" font-size="14" lengthAdjust="spacing" textLength="94" x="193.5" y="196.8857">floor: Flooring</text><line style="stroke:#181818;stroke-width:0.5;" x1="188.5" x2="354.5" y1="204.1875" y2="204.1875"/><text fill="#000000" font-family="sans-serif" font-size="14" lengthAdjust="spacing" textLength="40" x="193.5" y="221.1826">area()</text></g><!--SRC=[ROun3i8m34NtdCBg11kiaJA161cu00gjQIqrTfMuGXNYxeG01IGylg_t_Jjg430CEa70SCAOZAbxdn9iAI0d4eQhCRSttKZI7x3hHI9nco7aqsb02qaZEDWBOu4ZanxhRDgdxs3rAJY8X9VCFinoLHNK8xVQsQyr3jObkL3pFpW_5jbvc2dGH_IBPVvw1m00]--></g></svg>