<?xml version="1.0" encoding="UTF-8" standalone="no"?><svg xmlns="http://www.w3.org/2000/svg" xmlns:xlink="http://www.w3.org/1999/xlink" contentScriptType="application/ecmascript" contentStyleType="text/css" height="625px" preserveAspectRatio="none" style="width:749px;height:625px;" version="1.1" viewBox="0 0 749 625" width="749px" zoomAndPan="magnify"><defs><filter height="300%" id="ffydu3ztgcm44" width="300%" x="-1" y="-1"><feGaussianBlur result="blurOut" stdDeviation="2.0"/><feColorMatrix in="blurOut" result="blurOut2" type="matrix" values="0 0 0 0 0 0 0 0 0 0 0 0 0 0 0 0 0 0 .4 0"/><feOffset dx="4.0" dy="4.0" in="blurOut2" result="blurOut3"/><feBlend in="SourceGraphic" in2="blurOut3" mode="normal"/></filter></defs><g><!--class Player--><rect fill="#FEFECE" filter="url(#ffydu3ztgcm44)" height="103.3438" id="Player" style="stroke: #A80036; stroke-width: 1.5;" width="149" x="529" y="39"/><ellipse cx="582.25" cy="55" fill="#ADD1B2" rx="11" ry="11" style="stroke: #A80036; stroke-width: 1.0;"/><path d="M585.0156,50.875 Q585.1719,50.6563 585.3594,50.5469 Q585.5469,50.4375 585.7656,50.4375 Q586.1406,50.4375 586.375,50.6953 Q586.6094,50.9531 586.6094,51.5625 L586.6094,53.0156 Q586.6094,53.625 586.375,53.8906 Q586.1406,54.1563 585.7656,54.1563 Q585.4219,54.1563 585.2188,53.9531 Q585.0156,53.7656 584.9063,53.25 Q584.8594,52.8906 584.6719,52.7031 Q584.3438,52.3281 583.7344,52.1094 Q583.125,51.8906 582.5,51.8906 Q581.7344,51.8906 581.1016,52.2188 Q580.4688,52.5469 579.9766,53.2969 Q579.4844,54.0469 579.4844,55.0781 L579.4844,56.1719 Q579.4844,57.4063 580.375,58.2266 Q581.2656,59.0469 582.8594,59.0469 Q583.7969,59.0469 584.4531,58.7969 Q584.8438,58.6406 585.2656,58.2031 Q585.5313,57.9375 585.6797,57.8594 Q585.8281,57.7813 586.0313,57.7813 Q586.3594,57.7813 586.6172,58.0391 Q586.875,58.2969 586.875,58.6406 Q586.875,58.9844 586.5313,59.3906 Q586.0313,59.9688 585.2344,60.2969 Q584.1563,60.75 582.8594,60.75 Q581.3438,60.75 580.1406,60.125 Q579.1563,59.625 578.4688,58.5547 Q577.7813,57.4844 577.7813,56.2031 L577.7813,55.0469 Q577.7813,53.7188 578.3984,52.5703 Q579.0156,51.4219 580.1094,50.8047 Q581.2031,50.1875 582.4375,50.1875 Q583.1719,50.1875 583.8203,50.3516 Q584.4688,50.5156 585.0156,50.875 Z "/><text fill="#000000" font-family="sans-serif" font-size="12" lengthAdjust="spacingAndGlyphs" textLength="34" x="602.75" y="59.9102">Player</text><line style="stroke: #A80036; stroke-width: 1.5;" x1="530" x2="677" y1="71" y2="71"/><text fill="#000000" font-family="sans-serif" font-size="11" lengthAdjust="spacingAndGlyphs" textLength="26" x="535" y="86.4189">name</text><text fill="#000000" font-family="sans-serif" font-size="11" lengthAdjust="spacingAndGlyphs" textLength="34" x="535" y="100.2549">symbol</text><line style="stroke: #A80036; stroke-width: 1.5;" x1="530" x2="677" y1="106.6719" y2="106.6719"/><text fill="#000000" font-family="sans-serif" font-size="11" lengthAdjust="spacingAndGlyphs" textLength="137" x="535" y="122.0908">nextMove(theBoard : Board)</text><text fill="#000000" font-family="sans-serif" font-size="11" lengthAdjust="spacingAndGlyphs" textLength="44" x="535" y="135.9268">choose()</text><!--class Board--><rect fill="#FEFECE" filter="url(#ffydu3ztgcm44)" height="81.5078" id="Board" style="stroke: #A80036; stroke-width: 1.5;" width="129" x="6" y="49.5"/><ellipse cx="49.8" cy="65.5" fill="#ADD1B2" rx="11" ry="11" style="stroke: #A80036; stroke-width: 1.0;"/><path d="M52.5656,61.375 Q52.7219,61.1563 52.9094,61.0469 Q53.0969,60.9375 53.3156,60.9375 Q53.6906,60.9375 53.925,61.1953 Q54.1594,61.4531 54.1594,62.0625 L54.1594,63.5156 Q54.1594,64.125 53.925,64.3906 Q53.6906,64.6563 53.3156,64.6563 Q52.9719,64.6563 52.7688,64.4531 Q52.5656,64.2656 52.4563,63.75 Q52.4094,63.3906 52.2219,63.2031 Q51.8938,62.8281 51.2844,62.6094 Q50.675,62.3906 50.05,62.3906 Q49.2844,62.3906 48.6516,62.7188 Q48.0188,63.0469 47.5266,63.7969 Q47.0344,64.5469 47.0344,65.5781 L47.0344,66.6719 Q47.0344,67.9063 47.925,68.7266 Q48.8156,69.5469 50.4094,69.5469 Q51.3469,69.5469 52.0031,69.2969 Q52.3938,69.1406 52.8156,68.7031 Q53.0813,68.4375 53.2297,68.3594 Q53.3781,68.2813 53.5813,68.2813 Q53.9094,68.2813 54.1672,68.5391 Q54.425,68.7969 54.425,69.1406 Q54.425,69.4844 54.0813,69.8906 Q53.5813,70.4688 52.7844,70.7969 Q51.7063,71.25 50.4094,71.25 Q48.8938,71.25 47.6906,70.625 Q46.7063,70.125 46.0188,69.0547 Q45.3313,67.9844 45.3313,66.7031 L45.3313,65.5469 Q45.3313,64.2188 45.9484,63.0703 Q46.5656,61.9219 47.6594,61.3047 Q48.7531,60.6875 49.9875,60.6875 Q50.7219,60.6875 51.3703,60.8516 Q52.0188,61.0156 52.5656,61.375 Z "/><text fill="#000000" font-family="sans-serif" font-size="12" lengthAdjust="spacingAndGlyphs" textLength="33" x="70.2" y="70.4102">Board</text><line style="stroke: #A80036; stroke-width: 1.5;" x1="7" x2="134" y1="81.5" y2="81.5"/><text fill="#000000" font-family="sans-serif" font-size="11" lengthAdjust="spacingAndGlyphs" textLength="77" x="12" y="96.9189">getCell(position)</text><text fill="#000000" font-family="sans-serif" font-size="11" lengthAdjust="spacingAndGlyphs" textLength="117" x="12" y="110.7549">setCell(position, symbol)</text><text fill="#000000" font-family="sans-serif" font-size="11" lengthAdjust="spacingAndGlyphs" textLength="32" x="12" y="124.5908">isFull()</text><!--class Strategy--><rect fill="#FEFECE" filter="url(#ffydu3ztgcm44)" height="32" id="Strategy" style="stroke: #A80036; stroke-width: 1.5;" width="76" x="170.5" y="74.5"/><ellipse cx="185.5" cy="90.5" fill="#ADD1B2" rx="11" ry="11" style="stroke: #A80036; stroke-width: 1.0;"/><path d="M188.2656,86.375 Q188.4219,86.1563 188.6094,86.0469 Q188.7969,85.9375 189.0156,85.9375 Q189.3906,85.9375 189.625,86.1953 Q189.8594,86.4531 189.8594,87.0625 L189.8594,88.5156 Q189.8594,89.125 189.625,89.3906 Q189.3906,89.6563 189.0156,89.6563 Q188.6719,89.6563 188.4688,89.4531 Q188.2656,89.2656 188.1563,88.75 Q188.1094,88.3906 187.9219,88.2031 Q187.5938,87.8281 186.9844,87.6094 Q186.375,87.3906 185.75,87.3906 Q184.9844,87.3906 184.3516,87.7188 Q183.7188,88.0469 183.2266,88.7969 Q182.7344,89.5469 182.7344,90.5781 L182.7344,91.6719 Q182.7344,92.9063 183.625,93.7266 Q184.5156,94.5469 186.1094,94.5469 Q187.0469,94.5469 187.7031,94.2969 Q188.0938,94.1406 188.5156,93.7031 Q188.7813,93.4375 188.9297,93.3594 Q189.0781,93.2813 189.2813,93.2813 Q189.6094,93.2813 189.8672,93.5391 Q190.125,93.7969 190.125,94.1406 Q190.125,94.4844 189.7813,94.8906 Q189.2813,95.4688 188.4844,95.7969 Q187.4063,96.25 186.1094,96.25 Q184.5938,96.25 183.3906,95.625 Q182.4063,95.125 181.7188,94.0547 Q181.0313,92.9844 181.0313,91.7031 L181.0313,90.5469 Q181.0313,89.2188 181.6484,88.0703 Q182.2656,86.9219 183.3594,86.3047 Q184.4531,85.6875 185.6875,85.6875 Q186.4219,85.6875 187.0703,85.8516 Q187.7188,86.0156 188.2656,86.375 Z "/><text fill="#000000" font-family="sans-serif" font-size="12" lengthAdjust="spacingAndGlyphs" textLength="44" x="199.5" y="95.4102">Strategy</text><!--class Referee--><rect fill="#FEFECE" filter="url(#ffydu3ztgcm44)" height="164.5234" id="Referee" style="stroke: #A80036; stroke-width: 1.5;" width="212" x="281.5" y="8"/><ellipse cx="361.25" cy="24" fill="#ADD1B2" rx="11" ry="11" style="stroke: #A80036; stroke-width: 1.0;"/><path d="M364.0156,19.875 Q364.1719,19.6563 364.3594,19.5469 Q364.5469,19.4375 364.7656,19.4375 Q365.1406,19.4375 365.375,19.6953 Q365.6094,19.9531 365.6094,20.5625 L365.6094,22.0156 Q365.6094,22.625 365.375,22.8906 Q365.1406,23.1563 364.7656,23.1563 Q364.4219,23.1563 364.2188,22.9531 Q364.0156,22.7656 363.9063,22.25 Q363.8594,21.8906 363.6719,21.7031 Q363.3438,21.3281 362.7344,21.1094 Q362.125,20.8906 361.5,20.8906 Q360.7344,20.8906 360.1016,21.2188 Q359.4688,21.5469 358.9766,22.2969 Q358.4844,23.0469 358.4844,24.0781 L358.4844,25.1719 Q358.4844,26.4063 359.375,27.2266 Q360.2656,28.0469 361.8594,28.0469 Q362.7969,28.0469 363.4531,27.7969 Q363.8438,27.6406 364.2656,27.2031 Q364.5313,26.9375 364.6797,26.8594 Q364.8281,26.7813 365.0313,26.7813 Q365.3594,26.7813 365.6172,27.0391 Q365.875,27.2969 365.875,27.6406 Q365.875,27.9844 365.5313,28.3906 Q365.0313,28.9688 364.2344,29.2969 Q363.1563,29.75 361.8594,29.75 Q360.3438,29.75 359.1406,29.125 Q358.1563,28.625 357.4688,27.5547 Q356.7813,26.4844 356.7813,25.2031 L356.7813,24.0469 Q356.7813,22.7188 357.3984,21.5703 Q358.0156,20.4219 359.1094,19.8047 Q360.2031,19.1875 361.4375,19.1875 Q362.1719,19.1875 362.8203,19.3516 Q363.4688,19.5156 364.0156,19.875 Z "/><text fill="#000000" font-family="sans-serif" font-size="12" lengthAdjust="spacingAndGlyphs" textLength="44" x="381.75" y="28.9102">Referee</text><line style="stroke: #A80036; stroke-width: 1.5;" x1="282.5" x2="492.5" y1="40" y2="40"/><text fill="#000000" font-family="sans-serif" font-size="11" lengthAdjust="spacingAndGlyphs" textLength="200" x="287.5" y="55.4189">validate(selectedMove, theBoard : Board)</text><text fill="#000000" font-family="sans-serif" font-size="11" lengthAdjust="spacingAndGlyphs" textLength="150" x="287.5" y="69.2549">checkForWin(theBoard: Board)</text><text fill="#000000" font-family="sans-serif" font-size="11" lengthAdjust="spacingAndGlyphs" textLength="156" x="287.5" y="83.0908">checkForLoss(theBoard: Board)</text><text fill="#000000" font-family="sans-serif" font-size="11" lengthAdjust="spacingAndGlyphs" textLength="179" x="287.5" y="96.9268">checkForStalemate(theBoard: Board)</text><text fill="#000000" font-family="sans-serif" font-size="11" lengthAdjust="spacingAndGlyphs" textLength="43" x="287.5" y="110.7627">flipCoin()</text><text fill="#000000" font-family="sans-serif" font-size="11" lengthAdjust="spacingAndGlyphs" textLength="0" x="290.5" y="124.5986"/><text fill="#000000" font-family="sans-serif" font-size="11" lengthAdjust="spacingAndGlyphs" textLength="131" x="287.5" y="138.4346">recognizeHorizontalWin(...)</text><text fill="#000000" font-family="sans-serif" font-size="11" lengthAdjust="spacingAndGlyphs" textLength="120" x="287.5" y="152.2705">recognizeVerticalWin(...)</text><text fill="#000000" font-family="sans-serif" font-size="11" lengthAdjust="spacingAndGlyphs" textLength="124" x="287.5" y="166.1064">recognizeDiagonalWin(...)</text><!--class Game--><rect fill="#FEFECE" filter="url(#ffydu3ztgcm44)" height="227.8672" id="Game" style="stroke: #A80036; stroke-width: 1.5;" width="119" x="11" y="233"/><ellipse cx="49.85" cy="249" fill="#ADD1B2" rx="11" ry="11" style="stroke: #A80036; stroke-width: 1.0;"/><path d="M52.6156,244.875 Q52.7719,244.6563 52.9594,244.5469 Q53.1469,244.4375 53.3656,244.4375 Q53.7406,244.4375 53.975,244.6953 Q54.2094,244.9531 54.2094,245.5625 L54.2094,247.0156 Q54.2094,247.625 53.975,247.8906 Q53.7406,248.1563 53.3656,248.1563 Q53.0219,248.1563 52.8188,247.9531 Q52.6156,247.7656 52.5063,247.25 Q52.4594,246.8906 52.2719,246.7031 Q51.9438,246.3281 51.3344,246.1094 Q50.725,245.8906 50.1,245.8906 Q49.3344,245.8906 48.7016,246.2188 Q48.0688,246.5469 47.5766,247.2969 Q47.0844,248.0469 47.0844,249.0781 L47.0844,250.1719 Q47.0844,251.4063 47.975,252.2266 Q48.8656,253.0469 50.4594,253.0469 Q51.3969,253.0469 52.0531,252.7969 Q52.4438,252.6406 52.8656,252.2031 Q53.1313,251.9375 53.2797,251.8594 Q53.4281,251.7813 53.6313,251.7813 Q53.9594,251.7813 54.2172,252.0391 Q54.475,252.2969 54.475,252.6406 Q54.475,252.9844 54.1313,253.3906 Q53.6313,253.9688 52.8344,254.2969 Q51.7563,254.75 50.4594,254.75 Q48.9438,254.75 47.7406,254.125 Q46.7563,253.625 46.0688,252.5547 Q45.3813,251.4844 45.3813,250.2031 L45.3813,249.0469 Q45.3813,247.7188 45.9984,246.5703 Q46.6156,245.4219 47.7094,244.8047 Q48.8031,244.1875 50.0375,244.1875 Q50.7719,244.1875 51.4203,244.3516 Q52.0688,244.5156 52.6156,244.875 Z "/><text fill="#000000" font-family="sans-serif" font-size="12" lengthAdjust="spacingAndGlyphs" textLength="34" x="69.15" y="253.9102">Game</text><line style="stroke: #A80036; stroke-width: 1.5;" x1="12" x2="129" y1="265" y2="265"/><text fill="#000000" font-family="sans-serif" font-size="11" lengthAdjust="spacingAndGlyphs" textLength="72" x="17" y="280.4189">player1: Player</text><text fill="#000000" font-family="sans-serif" font-size="11" lengthAdjust="spacingAndGlyphs" textLength="72" x="17" y="294.2549">player2: Player</text><line style="stroke: #A80036; stroke-width: 1.5;" x1="12" x2="129" y1="300.6719" y2="300.6719"/><text fill="#000000" font-family="sans-serif" font-size="11" lengthAdjust="spacingAndGlyphs" textLength="96" x="17" y="316.0908">getWinner() : Player</text><text fill="#000000" font-family="sans-serif" font-size="11" lengthAdjust="spacingAndGlyphs" textLength="90" x="17" y="329.9268">getLoser() : Player</text><text fill="#000000" font-family="sans-serif" font-size="11" lengthAdjust="spacingAndGlyphs" textLength="57" x="17" y="343.7627">playMatch()</text><text fill="#000000" font-family="sans-serif" font-size="11" lengthAdjust="spacingAndGlyphs" textLength="79" x="17" y="357.5986">playOneRound()</text><text fill="#000000" font-family="sans-serif" font-size="11" lengthAdjust="spacingAndGlyphs" textLength="40" x="17" y="371.4346">isOver()</text><text fill="#000000" font-family="sans-serif" font-size="11" lengthAdjust="spacingAndGlyphs" textLength="77" x="17" y="385.2705">endedWithWin()</text><text fill="#000000" font-family="sans-serif" font-size="11" lengthAdjust="spacingAndGlyphs" textLength="83" x="17" y="399.1064">endedWithLoss()</text><text fill="#000000" font-family="sans-serif" font-size="11" lengthAdjust="spacingAndGlyphs" textLength="106" x="17" y="412.9424">endedWithStalemate()</text><text fill="#000000" font-family="sans-serif" font-size="11" lengthAdjust="spacingAndGlyphs" textLength="0" x="20" y="426.7783"/><text fill="#000000" font-family="sans-serif" font-size="11" lengthAdjust="spacingAndGlyphs" textLength="107" x="17" y="440.6143">setPlayer1(p: Player)?</text><text fill="#000000" font-family="sans-serif" font-size="11" lengthAdjust="spacingAndGlyphs" textLength="107" x="17" y="454.4502">setPlayer2(p: Player)?</text><!--class Scoreboard--><rect fill="#FEFECE" filter="url(#ffydu3ztgcm44)" height="67.6719" id="Scoreboard" style="stroke: #A80036; stroke-width: 1.5;" width="192" x="165.5" y="313"/><ellipse cx="225.25" cy="329" fill="#ADD1B2" rx="11" ry="11" style="stroke: #A80036; stroke-width: 1.0;"/><path d="M228.0156,324.875 Q228.1719,324.6563 228.3594,324.5469 Q228.5469,324.4375 228.7656,324.4375 Q229.1406,324.4375 229.375,324.6953 Q229.6094,324.9531 229.6094,325.5625 L229.6094,327.0156 Q229.6094,327.625 229.375,327.8906 Q229.1406,328.1563 228.7656,328.1563 Q228.4219,328.1563 228.2188,327.9531 Q228.0156,327.7656 227.9063,327.25 Q227.8594,326.8906 227.6719,326.7031 Q227.3438,326.3281 226.7344,326.1094 Q226.125,325.8906 225.5,325.8906 Q224.7344,325.8906 224.1016,326.2188 Q223.4688,326.5469 222.9766,327.2969 Q222.4844,328.0469 222.4844,329.0781 L222.4844,330.1719 Q222.4844,331.4063 223.375,332.2266 Q224.2656,333.0469 225.8594,333.0469 Q226.7969,333.0469 227.4531,332.7969 Q227.8438,332.6406 228.2656,332.2031 Q228.5313,331.9375 228.6797,331.8594 Q228.8281,331.7813 229.0313,331.7813 Q229.3594,331.7813 229.6172,332.0391 Q229.875,332.2969 229.875,332.6406 Q229.875,332.9844 229.5313,333.3906 Q229.0313,333.9688 228.2344,334.2969 Q227.1563,334.75 225.8594,334.75 Q224.3438,334.75 223.1406,334.125 Q222.1563,333.625 221.4688,332.5547 Q220.7813,331.4844 220.7813,330.2031 L220.7813,329.0469 Q220.7813,327.7188 221.3984,326.5703 Q222.0156,325.4219 223.1094,324.8047 Q224.2031,324.1875 225.4375,324.1875 Q226.1719,324.1875 226.8203,324.3516 Q227.4688,324.5156 228.0156,324.875 Z "/><text fill="#000000" font-family="sans-serif" font-size="12" lengthAdjust="spacingAndGlyphs" textLength="64" x="245.75" y="333.9102">Scoreboard</text><line style="stroke: #A80036; stroke-width: 1.5;" x1="166.5" x2="356.5" y1="345" y2="345"/><text fill="#000000" font-family="sans-serif" font-size="11" lengthAdjust="spacingAndGlyphs" textLength="105" x="171.5" y="360.4189">awardPoint(p: Player)</text><text fill="#000000" font-family="sans-serif" font-size="11" lengthAdjust="spacingAndGlyphs" textLength="180" x="171.5" y="374.2549">recordMatch(p1: Player, p2: Player 2)</text><!--class HumanPlayer--><rect fill="#FEFECE" filter="url(#ffydu3ztgcm44)" height="32" id="HumanPlayer" style="stroke: #A80036; stroke-width: 1.5;" width="107" x="475" y="582"/><ellipse cx="490" cy="598" fill="#ADD1B2" rx="11" ry="11" style="stroke: #A80036; stroke-width: 1.0;"/><path d="M492.7656,593.875 Q492.9219,593.6563 493.1094,593.5469 Q493.2969,593.4375 493.5156,593.4375 Q493.8906,593.4375 494.125,593.6953 Q494.3594,593.9531 494.3594,594.5625 L494.3594,596.0156 Q494.3594,596.625 494.125,596.8906 Q493.8906,597.1563 493.5156,597.1563 Q493.1719,597.1563 492.9688,596.9531 Q492.7656,596.7656 492.6563,596.25 Q492.6094,595.8906 492.4219,595.7031 Q492.0938,595.3281 491.4844,595.1094 Q490.875,594.8906 490.25,594.8906 Q489.4844,594.8906 488.8516,595.2188 Q488.2188,595.5469 487.7266,596.2969 Q487.2344,597.0469 487.2344,598.0781 L487.2344,599.1719 Q487.2344,600.4063 488.125,601.2266 Q489.0156,602.0469 490.6094,602.0469 Q491.5469,602.0469 492.2031,601.7969 Q492.5938,601.6406 493.0156,601.2031 Q493.2813,600.9375 493.4297,600.8594 Q493.5781,600.7813 493.7813,600.7813 Q494.1094,600.7813 494.3672,601.0391 Q494.625,601.2969 494.625,601.6406 Q494.625,601.9844 494.2813,602.3906 Q493.7813,602.9688 492.9844,603.2969 Q491.9063,603.75 490.6094,603.75 Q489.0938,603.75 487.8906,603.125 Q486.9063,602.625 486.2188,601.5547 Q485.5313,600.4844 485.5313,599.2031 L485.5313,598.0469 Q485.5313,596.7188 486.1484,595.5703 Q486.7656,594.4219 487.8594,593.8047 Q488.9531,593.1875 490.1875,593.1875 Q490.9219,593.1875 491.5703,593.3516 Q492.2188,593.5156 492.7656,593.875 Z "/><text fill="#000000" font-family="sans-serif" font-size="12" lengthAdjust="spacingAndGlyphs" textLength="75" x="504" y="602.9102">HumanPlayer</text><!--class ComputerPlayer--><rect fill="#FEFECE" filter="url(#ffydu3ztgcm44)" height="32" id="ComputerPlayer" style="stroke: #A80036; stroke-width: 1.5;" width="121" x="617" y="582"/><ellipse cx="632" cy="598" fill="#ADD1B2" rx="11" ry="11" style="stroke: #A80036; stroke-width: 1.0;"/><path d="M634.7656,593.875 Q634.9219,593.6563 635.1094,593.5469 Q635.2969,593.4375 635.5156,593.4375 Q635.8906,593.4375 636.125,593.6953 Q636.3594,593.9531 636.3594,594.5625 L636.3594,596.0156 Q636.3594,596.625 636.125,596.8906 Q635.8906,597.1563 635.5156,597.1563 Q635.1719,597.1563 634.9688,596.9531 Q634.7656,596.7656 634.6563,596.25 Q634.6094,595.8906 634.4219,595.7031 Q634.0938,595.3281 633.4844,595.1094 Q632.875,594.8906 632.25,594.8906 Q631.4844,594.8906 630.8516,595.2188 Q630.2188,595.5469 629.7266,596.2969 Q629.2344,597.0469 629.2344,598.0781 L629.2344,599.1719 Q629.2344,600.4063 630.125,601.2266 Q631.0156,602.0469 632.6094,602.0469 Q633.5469,602.0469 634.2031,601.7969 Q634.5938,601.6406 635.0156,601.2031 Q635.2813,600.9375 635.4297,600.8594 Q635.5781,600.7813 635.7813,600.7813 Q636.1094,600.7813 636.3672,601.0391 Q636.625,601.2969 636.625,601.6406 Q636.625,601.9844 636.2813,602.3906 Q635.7813,602.9688 634.9844,603.2969 Q633.9063,603.75 632.6094,603.75 Q631.0938,603.75 629.8906,603.125 Q628.9063,602.625 628.2188,601.5547 Q627.5313,600.4844 627.5313,599.2031 L627.5313,598.0469 Q627.5313,596.7188 628.1484,595.5703 Q628.7656,594.4219 629.8594,593.8047 Q630.9531,593.1875 632.1875,593.1875 Q632.9219,593.1875 633.5703,593.3516 Q634.2188,593.5156 634.7656,593.875 Z "/><text fill="#000000" font-family="sans-serif" font-size="12" lengthAdjust="spacingAndGlyphs" textLength="89" x="646" y="602.9102">ComputerPlayer</text><!--link Player to HumanPlayer--><path d="M593,162.27 C575.158,282.525 539.958,519.7717 530.748,581.8467 " fill="none" id="Player-HumanPlayer" style="stroke: #A80036; stroke-width: 1.0;"/><polygon fill="none" points="586.106,161.04,595.965,142.284,599.954,163.095,586.106,161.04" style="stroke: #A80036; stroke-width: 1.0;"/><!--link Player to ComputerPlayer--><path d="M613.86,162.27 C631.464,282.525 666.195,519.7717 675.282,581.8467 " fill="none" id="Player-ComputerPlayer" style="stroke: #A80036; stroke-width: 1.0;"/><polygon fill="none" points="606.905,163.087,610.934,142.284,620.757,161.059,606.905,163.087" style="stroke: #A80036; stroke-width: 1.0;"/><!--link Board to Strategy--><!--link Strategy to Referee--><!--link Board to Game--><!--link Game to Scoreboard--><!--
@startuml
hide empty members

class Player {
    name
    symbol

    nextMove(theBoard : Board)
    choose()
}

class Board {
    getCell(position)
    setCell(position, symbol)
    isFull()
}

class Strategy {

}

class Referee {
    validate(selectedMove, theBoard : Board)
    checkForWin(theBoard: Board)
    checkForLoss(theBoard: Board)
    checkForStalemate(theBoard: Board)
    flipCoin()

    recognizeHorizontalWin(...)
    recognizeVerticalWin(...)
    recognizeDiagonalWin(...)
}

class Game {
    player1: Player
    player2: Player

    getWinner() : Player
    getLoser() : Player
    playMatch()
    playOneRound()
    isOver()
    endedWithWin()
    endedWithLoss()
    endedWithStalemate()

    setPlayer1(p: Player)?
    setPlayer2(p: Player)?
}

class Scoreboard {
    awardPoint(p: Player)
    recordMatch(p1: Player, p2: Player 2)
}

Player <|- - - - HumanPlayer
Player <|- - - - ComputerPlayer

@enduml

PlantUML version 1.2018.12(Sun Oct 21 06:15:15 EDT 2018)
(GPL source distribution)
Java Runtime: Java(TM) SE Runtime Environment
JVM: Java HotSpot(TM) 64-Bit Server VM
Java Version: 1.8.0_172-b11
Operating System: Windows 10
OS Version: 10.0
Default Encoding: Cp1252
Language: en
Country: US
--></g></svg>