<?xml version="1.0" encoding="UTF-8" standalone="no"?><svg xmlns="http://www.w3.org/2000/svg" xmlns:xlink="http://www.w3.org/1999/xlink" contentScriptType="application/ecmascript" contentStyleType="text/css" height="94px" preserveAspectRatio="none" style="width:252px;height:94px;" version="1.1" viewBox="0 0 252 94" width="252px" zoomAndPan="magnify"><defs><filter height="300%" id="f9mw8whspg71v" width="300%" x="-1" y="-1"><feGaussianBlur result="blurOut" stdDeviation="2.0"/><feColorMatrix in="blurOut" result="blurOut2" type="matrix" values="0 0 0 0 0 0 0 0 0 0 0 0 0 0 0 0 0 0 .4 0"/><feOffset dx="4.0" dy="4.0" in="blurOut2" result="blurOut3"/><feBlend in="SourceGraphic" in2="blurOut3" mode="normal"/></filter></defs><g><!--class Player--><rect fill="#FEFECE" filter="url(#f9mw8whspg71v)" height="75.6719" id="Player" style="stroke: #A80036; stroke-width: 1.5;" width="71" x="6" y="8"/><ellipse cx="23.25" cy="24" fill="#ADD1B2" rx="11" ry="11" style="stroke: #A80036; stroke-width: 1.0;"/><path d="M26.0156,19.875 Q26.1719,19.6563 26.3594,19.5469 Q26.5469,19.4375 26.7656,19.4375 Q27.1406,19.4375 27.375,19.6953 Q27.6094,19.9531 27.6094,20.5625 L27.6094,22.0156 Q27.6094,22.625 27.375,22.8906 Q27.1406,23.1563 26.7656,23.1563 Q26.4219,23.1563 26.2188,22.9531 Q26.0156,22.7656 25.9063,22.25 Q25.8594,21.8906 25.6719,21.7031 Q25.3438,21.3281 24.7344,21.1094 Q24.125,20.8906 23.5,20.8906 Q22.7344,20.8906 22.1016,21.2188 Q21.4688,21.5469 20.9766,22.2969 Q20.4844,23.0469 20.4844,24.0781 L20.4844,25.1719 Q20.4844,26.4063 21.375,27.2266 Q22.2656,28.0469 23.8594,28.0469 Q24.7969,28.0469 25.4531,27.7969 Q25.8438,27.6406 26.2656,27.2031 Q26.5313,26.9375 26.6797,26.8594 Q26.8281,26.7813 27.0313,26.7813 Q27.3594,26.7813 27.6172,27.0391 Q27.875,27.2969 27.875,27.6406 Q27.875,27.9844 27.5313,28.3906 Q27.0313,28.9688 26.2344,29.2969 Q25.1563,29.75 23.8594,29.75 Q22.3438,29.75 21.1406,29.125 Q20.1563,28.625 19.4688,27.5547 Q18.7813,26.4844 18.7813,25.2031 L18.7813,24.0469 Q18.7813,22.7188 19.3984,21.5703 Q20.0156,20.4219 21.1094,19.8047 Q22.2031,19.1875 23.4375,19.1875 Q24.1719,19.1875 24.8203,19.3516 Q25.4688,19.5156 26.0156,19.875 Z "/><text fill="#000000" font-family="sans-serif" font-size="12" lengthAdjust="spacingAndGlyphs" textLength="34" x="37.75" y="28.9102">Player</text><line style="stroke: #A80036; stroke-width: 1.5;" x1="7" x2="76" y1="40" y2="40"/><text fill="#000000" font-family="sans-serif" font-size="11" lengthAdjust="spacingAndGlyphs" textLength="34" x="12" y="55.4189">symbol</text><line style="stroke: #A80036; stroke-width: 1.5;" x1="7" x2="76" y1="61.8359" y2="61.8359"/><text fill="#000000" font-family="sans-serif" font-size="11" lengthAdjust="spacingAndGlyphs" textLength="59" x="12" y="77.2549">makeMove()</text><!--class Board--><rect fill="#FEFECE" filter="url(#f9mw8whspg71v)" height="75.6719" id="Board" style="stroke: #A80036; stroke-width: 1.5;" width="129" x="112" y="8"/><ellipse cx="155.8" cy="24" fill="#ADD1B2" rx="11" ry="11" style="stroke: #A80036; stroke-width: 1.0;"/><path d="M158.5656,19.875 Q158.7219,19.6563 158.9094,19.5469 Q159.0969,19.4375 159.3156,19.4375 Q159.6906,19.4375 159.925,19.6953 Q160.1594,19.9531 160.1594,20.5625 L160.1594,22.0156 Q160.1594,22.625 159.925,22.8906 Q159.6906,23.1563 159.3156,23.1563 Q158.9719,23.1563 158.7688,22.9531 Q158.5656,22.7656 158.4563,22.25 Q158.4094,21.8906 158.2219,21.7031 Q157.8938,21.3281 157.2844,21.1094 Q156.675,20.8906 156.05,20.8906 Q155.2844,20.8906 154.6516,21.2188 Q154.0188,21.5469 153.5266,22.2969 Q153.0344,23.0469 153.0344,24.0781 L153.0344,25.1719 Q153.0344,26.4063 153.925,27.2266 Q154.8156,28.0469 156.4094,28.0469 Q157.3469,28.0469 158.0031,27.7969 Q158.3938,27.6406 158.8156,27.2031 Q159.0813,26.9375 159.2297,26.8594 Q159.3781,26.7813 159.5813,26.7813 Q159.9094,26.7813 160.1672,27.0391 Q160.425,27.2969 160.425,27.6406 Q160.425,27.9844 160.0813,28.3906 Q159.5813,28.9688 158.7844,29.2969 Q157.7063,29.75 156.4094,29.75 Q154.8938,29.75 153.6906,29.125 Q152.7063,28.625 152.0188,27.5547 Q151.3313,26.4844 151.3313,25.2031 L151.3313,24.0469 Q151.3313,22.7188 151.9484,21.5703 Q152.5656,20.4219 153.6594,19.8047 Q154.7531,19.1875 155.9875,19.1875 Q156.7219,19.1875 157.3703,19.3516 Q158.0188,19.5156 158.5656,19.875 Z "/><text fill="#000000" font-family="sans-serif" font-size="12" lengthAdjust="spacingAndGlyphs" textLength="33" x="176.2" y="28.9102">Board</text><line style="stroke: #A80036; stroke-width: 1.5;" x1="113" x2="240" y1="40" y2="40"/><line style="stroke: #A80036; stroke-width: 1.5;" x1="113" x2="240" y1="48" y2="48"/><text fill="#000000" font-family="sans-serif" font-size="11" lengthAdjust="spacingAndGlyphs" textLength="77" x="118" y="63.4189">getCell(position)</text><text fill="#000000" font-family="sans-serif" font-size="11" lengthAdjust="spacingAndGlyphs" textLength="117" x="118" y="77.2549">setCell(position, symbol)</text><!--
@startuml

Player : symbol
Player : makeMove()

Board : getCell(position)
Board : setCell(position, symbol)

@enduml

PlantUML version 1.2018.12(Sun Oct 21 06:15:15 EDT 2018)
(GPL source distribution)
Java Runtime: Java(TM) SE Runtime Environment
JVM: Java HotSpot(TM) 64-Bit Server VM
Java Version: 1.8.0_172-b11
Operating System: Windows 10
OS Version: 10.0
Default Encoding: Cp1252
Language: en
Country: US
--></g></svg>