<?xml version="1.0" encoding="UTF-8" standalone="no"?><svg xmlns="http://www.w3.org/2000/svg" xmlns:xlink="http://www.w3.org/1999/xlink" contentScriptType="application/ecmascript" contentStyleType="text/css" height="524px" preserveAspectRatio="none" style="width:447px;height:524px;" version="1.1" viewBox="0 0 447 524" width="447px" zoomAndPan="magnify"><defs><filter height="300%" id="fpqntab6x81vs" width="300%" x="-1" y="-1"><feGaussianBlur result="blurOut" stdDeviation="2.0"/><feColorMatrix in="blurOut" result="blurOut2" type="matrix" values="0 0 0 0 0 0 0 0 0 0 0 0 0 0 0 0 0 0 .4 0"/><feOffset dx="4.0" dy="4.0" in="blurOut2" result="blurOut3"/><feBlend in="SourceGraphic" in2="blurOut3" mode="normal"/></filter></defs><g><!--class Player--><rect fill="#FEFECE" filter="url(#fpqntab6x81vs)" height="89.5078" id="Player" style="stroke: #A80036; stroke-width: 1.5;" width="149" x="6" y="222.5"/><ellipse cx="59.25" cy="238.5" fill="#ADD1B2" rx="11" ry="11" style="stroke: #A80036; stroke-width: 1.0;"/><path d="M62.0156,234.375 Q62.1719,234.1563 62.3594,234.0469 Q62.5469,233.9375 62.7656,233.9375 Q63.1406,233.9375 63.375,234.1953 Q63.6094,234.4531 63.6094,235.0625 L63.6094,236.5156 Q63.6094,237.125 63.375,237.3906 Q63.1406,237.6563 62.7656,237.6563 Q62.4219,237.6563 62.2188,237.4531 Q62.0156,237.2656 61.9063,236.75 Q61.8594,236.3906 61.6719,236.2031 Q61.3438,235.8281 60.7344,235.6094 Q60.125,235.3906 59.5,235.3906 Q58.7344,235.3906 58.1016,235.7188 Q57.4688,236.0469 56.9766,236.7969 Q56.4844,237.5469 56.4844,238.5781 L56.4844,239.6719 Q56.4844,240.9063 57.375,241.7266 Q58.2656,242.5469 59.8594,242.5469 Q60.7969,242.5469 61.4531,242.2969 Q61.8438,242.1406 62.2656,241.7031 Q62.5313,241.4375 62.6797,241.3594 Q62.8281,241.2813 63.0313,241.2813 Q63.3594,241.2813 63.6172,241.5391 Q63.875,241.7969 63.875,242.1406 Q63.875,242.4844 63.5313,242.8906 Q63.0313,243.4688 62.2344,243.7969 Q61.1563,244.25 59.8594,244.25 Q58.3438,244.25 57.1406,243.625 Q56.1563,243.125 55.4688,242.0547 Q54.7813,240.9844 54.7813,239.7031 L54.7813,238.5469 Q54.7813,237.2188 55.3984,236.0703 Q56.0156,234.9219 57.1094,234.3047 Q58.2031,233.6875 59.4375,233.6875 Q60.1719,233.6875 60.8203,233.8516 Q61.4688,234.0156 62.0156,234.375 Z "/><text fill="#000000" font-family="sans-serif" font-size="12" lengthAdjust="spacingAndGlyphs" textLength="34" x="79.75" y="243.4102">Player</text><line style="stroke: #A80036; stroke-width: 1.5;" x1="7" x2="154" y1="254.5" y2="254.5"/><text fill="#000000" font-family="sans-serif" font-size="11" lengthAdjust="spacingAndGlyphs" textLength="26" x="12" y="269.9189">name</text><text fill="#000000" font-family="sans-serif" font-size="11" lengthAdjust="spacingAndGlyphs" textLength="34" x="12" y="283.7549">symbol</text><line style="stroke: #A80036; stroke-width: 1.5;" x1="7" x2="154" y1="290.1719" y2="290.1719"/><text fill="#000000" font-family="sans-serif" font-size="11" lengthAdjust="spacingAndGlyphs" textLength="137" x="12" y="305.5908">nextMove(theBoard : Board)</text><!--class Board--><rect fill="#FEFECE" filter="url(#fpqntab6x81vs)" height="81.5078" id="Board" style="stroke: #A80036; stroke-width: 1.5;" width="129" x="209" y="432"/><ellipse cx="252.8" cy="448" fill="#ADD1B2" rx="11" ry="11" style="stroke: #A80036; stroke-width: 1.0;"/><path d="M255.5656,443.875 Q255.7219,443.6563 255.9094,443.5469 Q256.0969,443.4375 256.3156,443.4375 Q256.6906,443.4375 256.925,443.6953 Q257.1594,443.9531 257.1594,444.5625 L257.1594,446.0156 Q257.1594,446.625 256.925,446.8906 Q256.6906,447.1563 256.3156,447.1563 Q255.9719,447.1563 255.7688,446.9531 Q255.5656,446.7656 255.4563,446.25 Q255.4094,445.8906 255.2219,445.7031 Q254.8938,445.3281 254.2844,445.1094 Q253.675,444.8906 253.05,444.8906 Q252.2844,444.8906 251.6516,445.2188 Q251.0188,445.5469 250.5266,446.2969 Q250.0344,447.0469 250.0344,448.0781 L250.0344,449.1719 Q250.0344,450.4063 250.925,451.2266 Q251.8156,452.0469 253.4094,452.0469 Q254.3469,452.0469 255.0031,451.7969 Q255.3938,451.6406 255.8156,451.2031 Q256.0813,450.9375 256.2297,450.8594 Q256.3781,450.7813 256.5813,450.7813 Q256.9094,450.7813 257.1672,451.0391 Q257.425,451.2969 257.425,451.6406 Q257.425,451.9844 257.0813,452.3906 Q256.5813,452.9688 255.7844,453.2969 Q254.7063,453.75 253.4094,453.75 Q251.8938,453.75 250.6906,453.125 Q249.7063,452.625 249.0188,451.5547 Q248.3313,450.4844 248.3313,449.2031 L248.3313,448.0469 Q248.3313,446.7188 248.9484,445.5703 Q249.5656,444.4219 250.6594,443.8047 Q251.7531,443.1875 252.9875,443.1875 Q253.7219,443.1875 254.3703,443.3516 Q255.0188,443.5156 255.5656,443.875 Z "/><text fill="#000000" font-family="sans-serif" font-size="12" lengthAdjust="spacingAndGlyphs" textLength="33" x="273.2" y="452.9102">Board</text><line style="stroke: #A80036; stroke-width: 1.5;" x1="210" x2="337" y1="464" y2="464"/><text fill="#000000" font-family="sans-serif" font-size="11" lengthAdjust="spacingAndGlyphs" textLength="77" x="215" y="479.4189">getCell(position)</text><text fill="#000000" font-family="sans-serif" font-size="11" lengthAdjust="spacingAndGlyphs" textLength="117" x="215" y="493.2549">setCell(position, symbol)</text><text fill="#000000" font-family="sans-serif" font-size="11" lengthAdjust="spacingAndGlyphs" textLength="32" x="215" y="507.0908">isFull()</text><!--class Strategy--><rect fill="#FEFECE" filter="url(#fpqntab6x81vs)" height="32" id="Strategy" style="stroke: #A80036; stroke-width: 1.5;" width="76" x="42.5" y="457"/><ellipse cx="57.5" cy="473" fill="#ADD1B2" rx="11" ry="11" style="stroke: #A80036; stroke-width: 1.0;"/><path d="M60.2656,468.875 Q60.4219,468.6563 60.6094,468.5469 Q60.7969,468.4375 61.0156,468.4375 Q61.3906,468.4375 61.625,468.6953 Q61.8594,468.9531 61.8594,469.5625 L61.8594,471.0156 Q61.8594,471.625 61.625,471.8906 Q61.3906,472.1563 61.0156,472.1563 Q60.6719,472.1563 60.4688,471.9531 Q60.2656,471.7656 60.1563,471.25 Q60.1094,470.8906 59.9219,470.7031 Q59.5938,470.3281 58.9844,470.1094 Q58.375,469.8906 57.75,469.8906 Q56.9844,469.8906 56.3516,470.2188 Q55.7188,470.5469 55.2266,471.2969 Q54.7344,472.0469 54.7344,473.0781 L54.7344,474.1719 Q54.7344,475.4063 55.625,476.2266 Q56.5156,477.0469 58.1094,477.0469 Q59.0469,477.0469 59.7031,476.7969 Q60.0938,476.6406 60.5156,476.2031 Q60.7813,475.9375 60.9297,475.8594 Q61.0781,475.7813 61.2813,475.7813 Q61.6094,475.7813 61.8672,476.0391 Q62.125,476.2969 62.125,476.6406 Q62.125,476.9844 61.7813,477.3906 Q61.2813,477.9688 60.4844,478.2969 Q59.4063,478.75 58.1094,478.75 Q56.5938,478.75 55.3906,478.125 Q54.4063,477.625 53.7188,476.5547 Q53.0313,475.4844 53.0313,474.2031 L53.0313,473.0469 Q53.0313,471.7188 53.6484,470.5703 Q54.2656,469.4219 55.3594,468.8047 Q56.4531,468.1875 57.6875,468.1875 Q58.4219,468.1875 59.0703,468.3516 Q59.7188,468.5156 60.2656,468.875 Z "/><text fill="#000000" font-family="sans-serif" font-size="12" lengthAdjust="spacingAndGlyphs" textLength="44" x="71.5" y="477.9102">Strategy</text><!--class Referee--><rect fill="#FEFECE" filter="url(#fpqntab6x81vs)" height="95.3438" id="Referee" style="stroke: #A80036; stroke-width: 1.5;" width="212" x="119.5" y="8"/><ellipse cx="199.25" cy="24" fill="#ADD1B2" rx="11" ry="11" style="stroke: #A80036; stroke-width: 1.0;"/><path d="M202.0156,19.875 Q202.1719,19.6563 202.3594,19.5469 Q202.5469,19.4375 202.7656,19.4375 Q203.1406,19.4375 203.375,19.6953 Q203.6094,19.9531 203.6094,20.5625 L203.6094,22.0156 Q203.6094,22.625 203.375,22.8906 Q203.1406,23.1563 202.7656,23.1563 Q202.4219,23.1563 202.2188,22.9531 Q202.0156,22.7656 201.9063,22.25 Q201.8594,21.8906 201.6719,21.7031 Q201.3438,21.3281 200.7344,21.1094 Q200.125,20.8906 199.5,20.8906 Q198.7344,20.8906 198.1016,21.2188 Q197.4688,21.5469 196.9766,22.2969 Q196.4844,23.0469 196.4844,24.0781 L196.4844,25.1719 Q196.4844,26.4063 197.375,27.2266 Q198.2656,28.0469 199.8594,28.0469 Q200.7969,28.0469 201.4531,27.7969 Q201.8438,27.6406 202.2656,27.2031 Q202.5313,26.9375 202.6797,26.8594 Q202.8281,26.7813 203.0313,26.7813 Q203.3594,26.7813 203.6172,27.0391 Q203.875,27.2969 203.875,27.6406 Q203.875,27.9844 203.5313,28.3906 Q203.0313,28.9688 202.2344,29.2969 Q201.1563,29.75 199.8594,29.75 Q198.3438,29.75 197.1406,29.125 Q196.1563,28.625 195.4688,27.5547 Q194.7813,26.4844 194.7813,25.2031 L194.7813,24.0469 Q194.7813,22.7188 195.3984,21.5703 Q196.0156,20.4219 197.1094,19.8047 Q198.2031,19.1875 199.4375,19.1875 Q200.1719,19.1875 200.8203,19.3516 Q201.4688,19.5156 202.0156,19.875 Z "/><text fill="#000000" font-family="sans-serif" font-size="12" lengthAdjust="spacingAndGlyphs" textLength="44" x="219.75" y="28.9102">Referee</text><line style="stroke: #A80036; stroke-width: 1.5;" x1="120.5" x2="330.5" y1="40" y2="40"/><text fill="#000000" font-family="sans-serif" font-size="11" lengthAdjust="spacingAndGlyphs" textLength="200" x="125.5" y="55.4189">validate(selectedMove, theBoard : Board)</text><text fill="#000000" font-family="sans-serif" font-size="11" lengthAdjust="spacingAndGlyphs" textLength="150" x="125.5" y="69.2549">checkForWin(theBoard: Board)</text><text fill="#000000" font-family="sans-serif" font-size="11" lengthAdjust="spacingAndGlyphs" textLength="156" x="125.5" y="83.0908">checkForLoss(theBoard: Board)</text><text fill="#000000" font-family="sans-serif" font-size="11" lengthAdjust="spacingAndGlyphs" textLength="179" x="125.5" y="96.9268">checkForStalemate(theBoard: Board)</text><!--class Game--><rect fill="#FEFECE" filter="url(#fpqntab6x81vs)" height="172.5234" id="Game" style="stroke: #A80036; stroke-width: 1.5;" width="118" x="318.5" y="181"/><ellipse cx="356.9" cy="197" fill="#ADD1B2" rx="11" ry="11" style="stroke: #A80036; stroke-width: 1.0;"/><path d="M359.6656,192.875 Q359.8219,192.6563 360.0094,192.5469 Q360.1969,192.4375 360.4156,192.4375 Q360.7906,192.4375 361.025,192.6953 Q361.2594,192.9531 361.2594,193.5625 L361.2594,195.0156 Q361.2594,195.625 361.025,195.8906 Q360.7906,196.1563 360.4156,196.1563 Q360.0719,196.1563 359.8688,195.9531 Q359.6656,195.7656 359.5563,195.25 Q359.5094,194.8906 359.3219,194.7031 Q358.9938,194.3281 358.3844,194.1094 Q357.775,193.8906 357.15,193.8906 Q356.3844,193.8906 355.7516,194.2188 Q355.1188,194.5469 354.6266,195.2969 Q354.1344,196.0469 354.1344,197.0781 L354.1344,198.1719 Q354.1344,199.4063 355.025,200.2266 Q355.9156,201.0469 357.5094,201.0469 Q358.4469,201.0469 359.1031,200.7969 Q359.4938,200.6406 359.9156,200.2031 Q360.1813,199.9375 360.3297,199.8594 Q360.4781,199.7813 360.6813,199.7813 Q361.0094,199.7813 361.2672,200.0391 Q361.525,200.2969 361.525,200.6406 Q361.525,200.9844 361.1813,201.3906 Q360.6813,201.9688 359.8844,202.2969 Q358.8063,202.75 357.5094,202.75 Q355.9938,202.75 354.7906,202.125 Q353.8063,201.625 353.1188,200.5547 Q352.4313,199.4844 352.4313,198.2031 L352.4313,197.0469 Q352.4313,195.7188 353.0484,194.5703 Q353.6656,193.4219 354.7594,192.8047 Q355.8531,192.1875 357.0875,192.1875 Q357.8219,192.1875 358.4703,192.3516 Q359.1188,192.5156 359.6656,192.875 Z "/><text fill="#000000" font-family="sans-serif" font-size="12" lengthAdjust="spacingAndGlyphs" textLength="34" x="376.1" y="201.9102">Game</text><line style="stroke: #A80036; stroke-width: 1.5;" x1="319.5" x2="435.5" y1="213" y2="213"/><text fill="#000000" font-family="sans-serif" font-size="11" lengthAdjust="spacingAndGlyphs" textLength="72" x="324.5" y="228.4189">player1: Player</text><text fill="#000000" font-family="sans-serif" font-size="11" lengthAdjust="spacingAndGlyphs" textLength="72" x="324.5" y="242.2549">player2: Player</text><line style="stroke: #A80036; stroke-width: 1.5;" x1="319.5" x2="435.5" y1="248.6719" y2="248.6719"/><text fill="#000000" font-family="sans-serif" font-size="11" lengthAdjust="spacingAndGlyphs" textLength="96" x="324.5" y="264.0908">getWinner() : Player</text><text fill="#000000" font-family="sans-serif" font-size="11" lengthAdjust="spacingAndGlyphs" textLength="90" x="324.5" y="277.9268">getLoser() : Player</text><text fill="#000000" font-family="sans-serif" font-size="11" lengthAdjust="spacingAndGlyphs" textLength="79" x="324.5" y="291.7627">playOneRound()</text><text fill="#000000" font-family="sans-serif" font-size="11" lengthAdjust="spacingAndGlyphs" textLength="40" x="324.5" y="305.5986">isOver()</text><text fill="#000000" font-family="sans-serif" font-size="11" lengthAdjust="spacingAndGlyphs" textLength="77" x="324.5" y="319.4346">endedWithWin()</text><text fill="#000000" font-family="sans-serif" font-size="11" lengthAdjust="spacingAndGlyphs" textLength="83" x="324.5" y="333.2705">endedWithLoss()</text><text fill="#000000" font-family="sans-serif" font-size="11" lengthAdjust="spacingAndGlyphs" textLength="106" x="324.5" y="347.1064">endedWithStalemate()</text><!--link Player to Strategy--><path d="M80.5,312.656 C80.5,355.753 80.5,419.4031 80.5,451.662 " fill="none" id="Player-Strategy" style="stroke: #A80036; stroke-width: 1.0;"/><polygon fill="#A80036" points="80.5,456.9354,84.5,447.9354,80.5,451.9354,76.5,447.9354,80.5,456.9354" style="stroke: #A80036; stroke-width: 1.0;"/><text fill="#000000" font-family="sans-serif" font-size="13" lengthAdjust="spacingAndGlyphs" textLength="49" x="81.5" y="398.4951">employs</text><!--link Referee to Board--><path d="M225.296,103.184 C225.696,162.028 228.588,266.113 242.5,354 C246.364,378.409 253.145,405.08 259.382,426.8805 " fill="none" id="Referee-Board" style="stroke: #A80036; stroke-width: 1.0;"/><polygon fill="#A80036" points="260.786,431.7401,262.13,421.9834,259.3978,426.9367,254.4446,424.2044,260.786,431.7401" style="stroke: #A80036; stroke-width: 1.0;"/><text fill="#000000" font-family="sans-serif" font-size="13" lengthAdjust="spacingAndGlyphs" textLength="56" x="243.5" y="272.9951">examines</text><!--link Game to Board--><path d="M327.689,365.966 C315.789,389.252 303.735,412.837 294.028,431.8329 " fill="none" id="Game-Board" style="stroke: #A80036; stroke-width: 1.0;"/><polygon fill="#A80036" points="333.696,354.213,327.404,357.7358,328.2358,364.8988,334.5278,361.376,333.696,354.213" style="stroke: #A80036; stroke-width: 1.0;"/><!--link Referee to Player--><path d="M147.786,103.028 C137.185,111.935 127.29,121.97 119.5,133 C101.9276,157.88 92.2034,190.656 86.8597,217.505 " fill="none" id="Referee-Player" style="stroke: #A80036; stroke-width: 1.0;"/><polygon fill="#A80036" points="85.912,222.446,91.5373,214.3617,86.8548,217.5357,83.6808,212.8532,85.912,222.446" style="stroke: #A80036; stroke-width: 1.0;"/><text fill="#000000" font-family="sans-serif" font-size="13" lengthAdjust="spacingAndGlyphs" textLength="78" x="120.5" y="147.4951">keeps honest</text><text fill="#000000" font-family="sans-serif" font-size="13" lengthAdjust="spacingAndGlyphs" textLength="7" x="79.2167" y="211.5529">2</text><!--link Referee to Game--><path d="M259.234,103.106 C275.755,125.931 296.183,154.154 315.387,180.686 " fill="none" id="Referee-Game" style="stroke: #A80036; stroke-width: 1.0;"/><polygon fill="#A80036" points="318.457,184.928,316.4203,175.292,315.5253,180.8777,309.9397,179.9827,318.457,184.928" style="stroke: #A80036; stroke-width: 1.0;"/><text fill="#000000" font-family="sans-serif" font-size="13" lengthAdjust="spacingAndGlyphs" textLength="67" x="293.5" y="147.4951">assigned to</text><text fill="#000000" font-family="sans-serif" font-size="13" lengthAdjust="spacingAndGlyphs" textLength="7" x="303.4437" y="170.8716">1</text><!--
@startuml
hide empty members

class Player {
    name
    symbol

    nextMove(theBoard : Board)
}

class Board {
    getCell(position)
    setCell(position, symbol)
    isFull()
}

class Strategy {

}

class Referee {
    validate(selectedMove, theBoard : Board)
    checkForWin(theBoard: Board)
    checkForLoss(theBoard: Board)
    checkForStalemate(theBoard: Board)
}

class Game {
    player1: Player
    player2: Player

    getWinner() : Player
    getLoser() : Player
    playOneRound()
    isOver()
    endedWithWin()
    endedWithLoss()
    endedWithStalemate()
}

Player - -> Strategy: employs
Referee - -> Board: examines
Game *- - Board
Referee - -> "2" Player : keeps honest
Referee - -> "1" Game : assigned to

@enduml

PlantUML version 1.2018.12(Sun Oct 21 06:15:15 EDT 2018)
(GPL source distribution)
Java Runtime: Java(TM) SE Runtime Environment
JVM: Java HotSpot(TM) 64-Bit Server VM
Java Version: 1.8.0_172-b11
Operating System: Windows 10
OS Version: 10.0
Default Encoding: Cp1252
Language: en
Country: US
--></g></svg>