<?xml version="1.0" encoding="UTF-8" standalone="no"?><svg xmlns="http://www.w3.org/2000/svg" xmlns:xlink="http://www.w3.org/1999/xlink" contentScriptType="application/ecmascript" contentStyleType="text/css" height="350px" preserveAspectRatio="none" style="width:280px;height:350px;" version="1.1" viewBox="0 0 280 350" width="280px" zoomAndPan="magnify"><defs><filter height="300%" id="f2o7s4jljc6kk" width="300%" x="-1" y="-1"><feGaussianBlur result="blurOut" stdDeviation="2.0"/><feColorMatrix in="blurOut" result="blurOut2" type="matrix" values="0 0 0 0 0 0 0 0 0 0 0 0 0 0 0 0 0 0 .4 0"/><feOffset dx="4.0" dy="4.0" in="blurOut2" result="blurOut3"/><feBlend in="SourceGraphic" in2="blurOut3" mode="normal"/></filter></defs><g><!--class Player--><rect fill="#FEFECE" filter="url(#f2o7s4jljc6kk)" height="117.1797" id="Player" style="stroke: #A80036; stroke-width: 1.5;" width="149" x="59" y="8"/><ellipse cx="112.25" cy="24" fill="#ADD1B2" rx="11" ry="11" style="stroke: #A80036; stroke-width: 1.0;"/><path d="M115.0156,19.875 Q115.1719,19.6563 115.3594,19.5469 Q115.5469,19.4375 115.7656,19.4375 Q116.1406,19.4375 116.375,19.6953 Q116.6094,19.9531 116.6094,20.5625 L116.6094,22.0156 Q116.6094,22.625 116.375,22.8906 Q116.1406,23.1563 115.7656,23.1563 Q115.4219,23.1563 115.2188,22.9531 Q115.0156,22.7656 114.9063,22.25 Q114.8594,21.8906 114.6719,21.7031 Q114.3438,21.3281 113.7344,21.1094 Q113.125,20.8906 112.5,20.8906 Q111.7344,20.8906 111.1016,21.2188 Q110.4688,21.5469 109.9766,22.2969 Q109.4844,23.0469 109.4844,24.0781 L109.4844,25.1719 Q109.4844,26.4063 110.375,27.2266 Q111.2656,28.0469 112.8594,28.0469 Q113.7969,28.0469 114.4531,27.7969 Q114.8438,27.6406 115.2656,27.2031 Q115.5313,26.9375 115.6797,26.8594 Q115.8281,26.7813 116.0313,26.7813 Q116.3594,26.7813 116.6172,27.0391 Q116.875,27.2969 116.875,27.6406 Q116.875,27.9844 116.5313,28.3906 Q116.0313,28.9688 115.2344,29.2969 Q114.1563,29.75 112.8594,29.75 Q111.3438,29.75 110.1406,29.125 Q109.1563,28.625 108.4688,27.5547 Q107.7813,26.4844 107.7813,25.2031 L107.7813,24.0469 Q107.7813,22.7188 108.3984,21.5703 Q109.0156,20.4219 110.1094,19.8047 Q111.2031,19.1875 112.4375,19.1875 Q113.1719,19.1875 113.8203,19.3516 Q114.4688,19.5156 115.0156,19.875 Z "/><text fill="#000000" font-family="sans-serif" font-size="12" lengthAdjust="spacingAndGlyphs" textLength="34" x="132.75" y="28.9102">Player</text><line style="stroke: #A80036; stroke-width: 1.5;" x1="60" x2="207" y1="40" y2="40"/><text fill="#000000" font-family="sans-serif" font-size="11" lengthAdjust="spacingAndGlyphs" textLength="26" x="65" y="55.4189">name</text><text fill="#000000" font-family="sans-serif" font-size="11" lengthAdjust="spacingAndGlyphs" textLength="34" x="65" y="69.2549">symbol</text><line style="stroke: #A80036; stroke-width: 1.5;" x1="60" x2="207" y1="75.6719" y2="75.6719"/><text fill="#000000" font-family="sans-serif" font-size="11" lengthAdjust="spacingAndGlyphs" textLength="137" x="65" y="91.0908">nextMove(theBoard : Board)</text><text fill="#000000" font-family="sans-serif" font-size="11" lengthAdjust="spacingAndGlyphs" textLength="49" x="65" y="104.9268">isHuman()</text><text fill="#000000" font-family="sans-serif" font-size="11" lengthAdjust="spacingAndGlyphs" textLength="62" x="65" y="118.7627">isComputer()</text><!--class HumanPlayer--><rect fill="#FEFECE" filter="url(#f2o7s4jljc6kk)" height="32" id="HumanPlayer" style="stroke: #A80036; stroke-width: 1.5;" width="107" x="6" y="307"/><ellipse cx="21" cy="323" fill="#ADD1B2" rx="11" ry="11" style="stroke: #A80036; stroke-width: 1.0;"/><path d="M23.7656,318.875 Q23.9219,318.6563 24.1094,318.5469 Q24.2969,318.4375 24.5156,318.4375 Q24.8906,318.4375 25.125,318.6953 Q25.3594,318.9531 25.3594,319.5625 L25.3594,321.0156 Q25.3594,321.625 25.125,321.8906 Q24.8906,322.1563 24.5156,322.1563 Q24.1719,322.1563 23.9688,321.9531 Q23.7656,321.7656 23.6563,321.25 Q23.6094,320.8906 23.4219,320.7031 Q23.0938,320.3281 22.4844,320.1094 Q21.875,319.8906 21.25,319.8906 Q20.4844,319.8906 19.8516,320.2188 Q19.2188,320.5469 18.7266,321.2969 Q18.2344,322.0469 18.2344,323.0781 L18.2344,324.1719 Q18.2344,325.4063 19.125,326.2266 Q20.0156,327.0469 21.6094,327.0469 Q22.5469,327.0469 23.2031,326.7969 Q23.5938,326.6406 24.0156,326.2031 Q24.2813,325.9375 24.4297,325.8594 Q24.5781,325.7813 24.7813,325.7813 Q25.1094,325.7813 25.3672,326.0391 Q25.625,326.2969 25.625,326.6406 Q25.625,326.9844 25.2813,327.3906 Q24.7813,327.9688 23.9844,328.2969 Q22.9063,328.75 21.6094,328.75 Q20.0938,328.75 18.8906,328.125 Q17.9063,327.625 17.2188,326.5547 Q16.5313,325.4844 16.5313,324.2031 L16.5313,323.0469 Q16.5313,321.7188 17.1484,320.5703 Q17.7656,319.4219 18.8594,318.8047 Q19.9531,318.1875 21.1875,318.1875 Q21.9219,318.1875 22.5703,318.3516 Q23.2188,318.5156 23.7656,318.875 Z "/><text fill="#000000" font-family="sans-serif" font-size="12" lengthAdjust="spacingAndGlyphs" textLength="75" x="35" y="327.9102">HumanPlayer</text><!--class ComputerPlayer--><rect fill="#FEFECE" filter="url(#f2o7s4jljc6kk)" height="32" id="ComputerPlayer" style="stroke: #A80036; stroke-width: 1.5;" width="121" x="148" y="307"/><ellipse cx="163" cy="323" fill="#ADD1B2" rx="11" ry="11" style="stroke: #A80036; stroke-width: 1.0;"/><path d="M165.7656,318.875 Q165.9219,318.6563 166.1094,318.5469 Q166.2969,318.4375 166.5156,318.4375 Q166.8906,318.4375 167.125,318.6953 Q167.3594,318.9531 167.3594,319.5625 L167.3594,321.0156 Q167.3594,321.625 167.125,321.8906 Q166.8906,322.1563 166.5156,322.1563 Q166.1719,322.1563 165.9688,321.9531 Q165.7656,321.7656 165.6563,321.25 Q165.6094,320.8906 165.4219,320.7031 Q165.0938,320.3281 164.4844,320.1094 Q163.875,319.8906 163.25,319.8906 Q162.4844,319.8906 161.8516,320.2188 Q161.2188,320.5469 160.7266,321.2969 Q160.2344,322.0469 160.2344,323.0781 L160.2344,324.1719 Q160.2344,325.4063 161.125,326.2266 Q162.0156,327.0469 163.6094,327.0469 Q164.5469,327.0469 165.2031,326.7969 Q165.5938,326.6406 166.0156,326.2031 Q166.2813,325.9375 166.4297,325.8594 Q166.5781,325.7813 166.7813,325.7813 Q167.1094,325.7813 167.3672,326.0391 Q167.625,326.2969 167.625,326.6406 Q167.625,326.9844 167.2813,327.3906 Q166.7813,327.9688 165.9844,328.2969 Q164.9063,328.75 163.6094,328.75 Q162.0938,328.75 160.8906,328.125 Q159.9063,327.625 159.2188,326.5547 Q158.5313,325.4844 158.5313,324.2031 L158.5313,323.0469 Q158.5313,321.7188 159.1484,320.5703 Q159.7656,319.4219 160.8594,318.8047 Q161.9531,318.1875 163.1875,318.1875 Q163.9219,318.1875 164.5703,318.3516 Q165.2188,318.5156 165.7656,318.875 Z "/><text fill="#000000" font-family="sans-serif" font-size="12" lengthAdjust="spacingAndGlyphs" textLength="89" x="177" y="327.9102">ComputerPlayer</text><!--link Player to HumanPlayer--><path d="M111.033,144.767 C94.3594,202.112 73.0034,275.5591 63.9134,306.8214 " fill="none" id="Player-HumanPlayer" style="stroke: #A80036; stroke-width: 1.0;"/><polygon fill="none" points="104.4025,142.5,116.708,125.25,117.846,146.409,104.4025,142.5" style="stroke: #A80036; stroke-width: 1.0;"/><!--link Player to ComputerPlayer--><path d="M156.27,144.767 C173.169,202.112 194.814,275.5591 204.027,306.8214 " fill="none" id="Player-ComputerPlayer" style="stroke: #A80036; stroke-width: 1.0;"/><polygon fill="none" points="149.458,146.413,150.519,125.25,162.887,142.456,149.458,146.413" style="stroke: #A80036; stroke-width: 1.0;"/><!--
@startuml
hide empty members

class Player {
    name
    symbol

    nextMove(theBoard : Board)
    isHuman()
    isComputer()
}

Player <|- - - - HumanPlayer
Player <|- - - - ComputerPlayer

@enduml

PlantUML version 1.2018.12(Sun Oct 21 06:15:15 EDT 2018)
(GPL source distribution)
Java Runtime: Java(TM) SE Runtime Environment
JVM: Java HotSpot(TM) 64-Bit Server VM
Java Version: 1.8.0_172-b11
Operating System: Windows 10
OS Version: 10.0
Default Encoding: Cp1252
Language: en
Country: US
--></g></svg>