<?xml version="1.0" encoding="UTF-8" standalone="no"?><svg xmlns="http://www.w3.org/2000/svg" xmlns:xlink="http://www.w3.org/1999/xlink" contentScriptType="application/ecmascript" contentStyleType="text/css" height="219px" preserveAspectRatio="none" style="width:492px;height:219px;" version="1.1" viewBox="0 0 492 219" width="492px" zoomAndPan="magnify"><defs><filter height="300%" id="f1buqd7towvcrw" width="300%" x="-1" y="-1"><feGaussianBlur result="blurOut" stdDeviation="2.0"/><feColorMatrix in="blurOut" result="blurOut2" type="matrix" values="0 0 0 0 0 0 0 0 0 0 0 0 0 0 0 0 0 0 .4 0"/><feOffset dx="4.0" dy="4.0" in="blurOut2" result="blurOut3"/><feBlend in="SourceGraphic" in2="blurOut3" mode="normal"/></filter></defs><g><!--class Player--><rect fill="#FEFECE" filter="url(#f1buqd7towvcrw)" height="89.5078" id="Player" style="stroke: #A80036; stroke-width: 1.5;" width="200" x="281.5" y="8"/><ellipse cx="360.25" cy="24" fill="#ADD1B2" rx="11" ry="11" style="stroke: #A80036; stroke-width: 1.0;"/><path d="M363.0156,19.875 Q363.1719,19.6563 363.3594,19.5469 Q363.5469,19.4375 363.7656,19.4375 Q364.1406,19.4375 364.375,19.6953 Q364.6094,19.9531 364.6094,20.5625 L364.6094,22.0156 Q364.6094,22.625 364.375,22.8906 Q364.1406,23.1563 363.7656,23.1563 Q363.4219,23.1563 363.2188,22.9531 Q363.0156,22.7656 362.9063,22.25 Q362.8594,21.8906 362.6719,21.7031 Q362.3438,21.3281 361.7344,21.1094 Q361.125,20.8906 360.5,20.8906 Q359.7344,20.8906 359.1016,21.2188 Q358.4688,21.5469 357.9766,22.2969 Q357.4844,23.0469 357.4844,24.0781 L357.4844,25.1719 Q357.4844,26.4063 358.375,27.2266 Q359.2656,28.0469 360.8594,28.0469 Q361.7969,28.0469 362.4531,27.7969 Q362.8438,27.6406 363.2656,27.2031 Q363.5313,26.9375 363.6797,26.8594 Q363.8281,26.7813 364.0313,26.7813 Q364.3594,26.7813 364.6172,27.0391 Q364.875,27.2969 364.875,27.6406 Q364.875,27.9844 364.5313,28.3906 Q364.0313,28.9688 363.2344,29.2969 Q362.1563,29.75 360.8594,29.75 Q359.3438,29.75 358.1406,29.125 Q357.1563,28.625 356.4688,27.5547 Q355.7813,26.4844 355.7813,25.2031 L355.7813,24.0469 Q355.7813,22.7188 356.3984,21.5703 Q357.0156,20.4219 358.1094,19.8047 Q359.2031,19.1875 360.4375,19.1875 Q361.1719,19.1875 361.8203,19.3516 Q362.4688,19.5156 363.0156,19.875 Z "/><text fill="#000000" font-family="sans-serif" font-size="12" lengthAdjust="spacingAndGlyphs" textLength="34" x="380.75" y="28.9102">Player</text><line style="stroke: #A80036; stroke-width: 1.5;" x1="282.5" x2="480.5" y1="40" y2="40"/><text fill="#000000" font-family="sans-serif" font-size="11" lengthAdjust="spacingAndGlyphs" textLength="26" x="287.5" y="55.4189">name</text><text fill="#000000" font-family="sans-serif" font-size="11" lengthAdjust="spacingAndGlyphs" textLength="34" x="287.5" y="69.2549">symbol</text><line style="stroke: #A80036; stroke-width: 1.5;" x1="282.5" x2="480.5" y1="75.6719" y2="75.6719"/><text fill="#000000" font-family="sans-serif" font-size="11" lengthAdjust="spacingAndGlyphs" textLength="188" x="287.5" y="91.0908">makeMove(theBoard : Board, theMove)</text><!--class Board--><rect fill="#FEFECE" filter="url(#f1buqd7towvcrw)" height="67.6719" id="Board" style="stroke: #A80036; stroke-width: 1.5;" width="129" x="6" y="19"/><ellipse cx="49.8" cy="35" fill="#ADD1B2" rx="11" ry="11" style="stroke: #A80036; stroke-width: 1.0;"/><path d="M52.5656,30.875 Q52.7219,30.6563 52.9094,30.5469 Q53.0969,30.4375 53.3156,30.4375 Q53.6906,30.4375 53.925,30.6953 Q54.1594,30.9531 54.1594,31.5625 L54.1594,33.0156 Q54.1594,33.625 53.925,33.8906 Q53.6906,34.1563 53.3156,34.1563 Q52.9719,34.1563 52.7688,33.9531 Q52.5656,33.7656 52.4563,33.25 Q52.4094,32.8906 52.2219,32.7031 Q51.8938,32.3281 51.2844,32.1094 Q50.675,31.8906 50.05,31.8906 Q49.2844,31.8906 48.6516,32.2188 Q48.0188,32.5469 47.5266,33.2969 Q47.0344,34.0469 47.0344,35.0781 L47.0344,36.1719 Q47.0344,37.4063 47.925,38.2266 Q48.8156,39.0469 50.4094,39.0469 Q51.3469,39.0469 52.0031,38.7969 Q52.3938,38.6406 52.8156,38.2031 Q53.0813,37.9375 53.2297,37.8594 Q53.3781,37.7813 53.5813,37.7813 Q53.9094,37.7813 54.1672,38.0391 Q54.425,38.2969 54.425,38.6406 Q54.425,38.9844 54.0813,39.3906 Q53.5813,39.9688 52.7844,40.2969 Q51.7063,40.75 50.4094,40.75 Q48.8938,40.75 47.6906,40.125 Q46.7063,39.625 46.0188,38.5547 Q45.3313,37.4844 45.3313,36.2031 L45.3313,35.0469 Q45.3313,33.7188 45.9484,32.5703 Q46.5656,31.4219 47.6594,30.8047 Q48.7531,30.1875 49.9875,30.1875 Q50.7219,30.1875 51.3703,30.3516 Q52.0188,30.5156 52.5656,30.875 Z "/><text fill="#000000" font-family="sans-serif" font-size="12" lengthAdjust="spacingAndGlyphs" textLength="33" x="70.2" y="39.9102">Board</text><line style="stroke: #A80036; stroke-width: 1.5;" x1="7" x2="134" y1="51" y2="51"/><text fill="#000000" font-family="sans-serif" font-size="11" lengthAdjust="spacingAndGlyphs" textLength="77" x="12" y="66.4189">getCell(position)</text><text fill="#000000" font-family="sans-serif" font-size="11" lengthAdjust="spacingAndGlyphs" textLength="117" x="12" y="80.2549">setCell(position, symbol)</text><!--class Strategy--><rect fill="#FEFECE" filter="url(#f1buqd7towvcrw)" height="32" id="Strategy" style="stroke: #A80036; stroke-width: 1.5;" width="76" x="343.5" y="176"/><ellipse cx="358.5" cy="192" fill="#ADD1B2" rx="11" ry="11" style="stroke: #A80036; stroke-width: 1.0;"/><path d="M361.2656,187.875 Q361.4219,187.6563 361.6094,187.5469 Q361.7969,187.4375 362.0156,187.4375 Q362.3906,187.4375 362.625,187.6953 Q362.8594,187.9531 362.8594,188.5625 L362.8594,190.0156 Q362.8594,190.625 362.625,190.8906 Q362.3906,191.1563 362.0156,191.1563 Q361.6719,191.1563 361.4688,190.9531 Q361.2656,190.7656 361.1563,190.25 Q361.1094,189.8906 360.9219,189.7031 Q360.5938,189.3281 359.9844,189.1094 Q359.375,188.8906 358.75,188.8906 Q357.9844,188.8906 357.3516,189.2188 Q356.7188,189.5469 356.2266,190.2969 Q355.7344,191.0469 355.7344,192.0781 L355.7344,193.1719 Q355.7344,194.4063 356.625,195.2266 Q357.5156,196.0469 359.1094,196.0469 Q360.0469,196.0469 360.7031,195.7969 Q361.0938,195.6406 361.5156,195.2031 Q361.7813,194.9375 361.9297,194.8594 Q362.0781,194.7813 362.2813,194.7813 Q362.6094,194.7813 362.8672,195.0391 Q363.125,195.2969 363.125,195.6406 Q363.125,195.9844 362.7813,196.3906 Q362.2813,196.9688 361.4844,197.2969 Q360.4063,197.75 359.1094,197.75 Q357.5938,197.75 356.3906,197.125 Q355.4063,196.625 354.7188,195.5547 Q354.0313,194.4844 354.0313,193.2031 L354.0313,192.0469 Q354.0313,190.7188 354.6484,189.5703 Q355.2656,188.4219 356.3594,187.8047 Q357.4531,187.1875 358.6875,187.1875 Q359.4219,187.1875 360.0703,187.3516 Q360.7188,187.5156 361.2656,187.875 Z "/><text fill="#000000" font-family="sans-serif" font-size="12" lengthAdjust="spacingAndGlyphs" textLength="44" x="372.5" y="196.9102">Strategy</text><!--class Referee--><rect fill="#FEFECE" filter="url(#f1buqd7towvcrw)" height="32" id="Referee" style="stroke: #A80036; stroke-width: 1.5;" width="76" x="170.5" y="37"/><ellipse cx="185.5" cy="53" fill="#ADD1B2" rx="11" ry="11" style="stroke: #A80036; stroke-width: 1.0;"/><path d="M188.2656,48.875 Q188.4219,48.6563 188.6094,48.5469 Q188.7969,48.4375 189.0156,48.4375 Q189.3906,48.4375 189.625,48.6953 Q189.8594,48.9531 189.8594,49.5625 L189.8594,51.0156 Q189.8594,51.625 189.625,51.8906 Q189.3906,52.1563 189.0156,52.1563 Q188.6719,52.1563 188.4688,51.9531 Q188.2656,51.7656 188.1563,51.25 Q188.1094,50.8906 187.9219,50.7031 Q187.5938,50.3281 186.9844,50.1094 Q186.375,49.8906 185.75,49.8906 Q184.9844,49.8906 184.3516,50.2188 Q183.7188,50.5469 183.2266,51.2969 Q182.7344,52.0469 182.7344,53.0781 L182.7344,54.1719 Q182.7344,55.4063 183.625,56.2266 Q184.5156,57.0469 186.1094,57.0469 Q187.0469,57.0469 187.7031,56.7969 Q188.0938,56.6406 188.5156,56.2031 Q188.7813,55.9375 188.9297,55.8594 Q189.0781,55.7813 189.2813,55.7813 Q189.6094,55.7813 189.8672,56.0391 Q190.125,56.2969 190.125,56.6406 Q190.125,56.9844 189.7813,57.3906 Q189.2813,57.9688 188.4844,58.2969 Q187.4063,58.75 186.1094,58.75 Q184.5938,58.75 183.3906,58.125 Q182.4063,57.625 181.7188,56.5547 Q181.0313,55.4844 181.0313,54.2031 L181.0313,53.0469 Q181.0313,51.7188 181.6484,50.5703 Q182.2656,49.4219 183.3594,48.8047 Q184.4531,48.1875 185.6875,48.1875 Q186.4219,48.1875 187.0703,48.3516 Q187.7188,48.5156 188.2656,48.875 Z "/><text fill="#000000" font-family="sans-serif" font-size="12" lengthAdjust="spacingAndGlyphs" textLength="44" x="199.5" y="57.9102">Referee</text><!--class Game--><rect fill="#FEFECE" filter="url(#f1buqd7towvcrw)" height="32" id="Game" style="stroke: #A80036; stroke-width: 1.5;" width="66" x="37.5" y="176"/><ellipse cx="52.5" cy="192" fill="#ADD1B2" rx="11" ry="11" style="stroke: #A80036; stroke-width: 1.0;"/><path d="M55.2656,187.875 Q55.4219,187.6563 55.6094,187.5469 Q55.7969,187.4375 56.0156,187.4375 Q56.3906,187.4375 56.625,187.6953 Q56.8594,187.9531 56.8594,188.5625 L56.8594,190.0156 Q56.8594,190.625 56.625,190.8906 Q56.3906,191.1563 56.0156,191.1563 Q55.6719,191.1563 55.4688,190.9531 Q55.2656,190.7656 55.1563,190.25 Q55.1094,189.8906 54.9219,189.7031 Q54.5938,189.3281 53.9844,189.1094 Q53.375,188.8906 52.75,188.8906 Q51.9844,188.8906 51.3516,189.2188 Q50.7188,189.5469 50.2266,190.2969 Q49.7344,191.0469 49.7344,192.0781 L49.7344,193.1719 Q49.7344,194.4063 50.625,195.2266 Q51.5156,196.0469 53.1094,196.0469 Q54.0469,196.0469 54.7031,195.7969 Q55.0938,195.6406 55.5156,195.2031 Q55.7813,194.9375 55.9297,194.8594 Q56.0781,194.7813 56.2813,194.7813 Q56.6094,194.7813 56.8672,195.0391 Q57.125,195.2969 57.125,195.6406 Q57.125,195.9844 56.7813,196.3906 Q56.2813,196.9688 55.4844,197.2969 Q54.4063,197.75 53.1094,197.75 Q51.5938,197.75 50.3906,197.125 Q49.4063,196.625 48.7188,195.5547 Q48.0313,194.4844 48.0313,193.2031 L48.0313,192.0469 Q48.0313,190.7188 48.6484,189.5703 Q49.2656,188.4219 50.3594,187.8047 Q51.4531,187.1875 52.6875,187.1875 Q53.4219,187.1875 54.0703,187.3516 Q54.7188,187.5156 55.2656,187.875 Z "/><text fill="#000000" font-family="sans-serif" font-size="12" lengthAdjust="spacingAndGlyphs" textLength="34" x="66.5" y="196.9102">Game</text><!--link Player to Strategy--><path d="M381.5,98.102 C381.5,122.5546 381.5,151.7788 381.5,170.8322 " fill="none" id="Player-Strategy" style="stroke: #A80036; stroke-width: 1.0;"/><polygon fill="#A80036" points="381.5,175.9241,385.5,166.9241,381.5,170.9241,377.5,166.9241,381.5,175.9241" style="stroke: #A80036; stroke-width: 1.0;"/><text fill="#000000" font-family="sans-serif" font-size="13" lengthAdjust="spacingAndGlyphs" textLength="49" x="382.5" y="142.4951">employs</text><!--link Board to Referee--><!--link Board to Game--><!--
@startuml
hide empty members

class Player {
    name
    symbol

    makeMove(theBoard : Board, theMove)
}

class Board {
    getCell(position)
    setCell(position, symbol)
}

class Strategy {

}

class Referee {

}

class Game {

}


Player - -> Strategy: employs

@enduml

PlantUML version 1.2018.12(Sun Oct 21 06:15:15 EDT 2018)
(GPL source distribution)
Java Runtime: Java(TM) SE Runtime Environment
JVM: Java HotSpot(TM) 64-Bit Server VM
Java Version: 1.8.0_172-b11
Operating System: Windows 10
OS Version: 10.0
Default Encoding: Cp1252
Language: en
Country: US
--></g></svg>