<?xml version="1.0" encoding="UTF-8" standalone="no"?><svg xmlns="http://www.w3.org/2000/svg" xmlns:xlink="http://www.w3.org/1999/xlink" contentScriptType="application/ecmascript" contentStyleType="text/css" height="219px" preserveAspectRatio="none" style="width:381px;height:219px;" version="1.1" viewBox="0 0 381 219" width="381px" zoomAndPan="magnify"><defs><filter height="300%" id="f1o2o0znn1umtq" width="300%" x="-1" y="-1"><feGaussianBlur result="blurOut" stdDeviation="2.0"/><feColorMatrix in="blurOut" result="blurOut2" type="matrix" values="0 0 0 0 0 0 0 0 0 0 0 0 0 0 0 0 0 0 .4 0"/><feOffset dx="4.0" dy="4.0" in="blurOut2" result="blurOut3"/><feBlend in="SourceGraphic" in2="blurOut3" mode="normal"/></filter></defs><g><!--class Player--><rect fill="#FEFECE" filter="url(#f1o2o0znn1umtq)" height="89.5078" id="Player" style="stroke: #A80036; stroke-width: 1.5;" width="200" x="6" y="8"/><ellipse cx="84.75" cy="24" fill="#ADD1B2" rx="11" ry="11" style="stroke: #A80036; stroke-width: 1.0;"/><path d="M87.5156,19.875 Q87.6719,19.6563 87.8594,19.5469 Q88.0469,19.4375 88.2656,19.4375 Q88.6406,19.4375 88.875,19.6953 Q89.1094,19.9531 89.1094,20.5625 L89.1094,22.0156 Q89.1094,22.625 88.875,22.8906 Q88.6406,23.1563 88.2656,23.1563 Q87.9219,23.1563 87.7188,22.9531 Q87.5156,22.7656 87.4063,22.25 Q87.3594,21.8906 87.1719,21.7031 Q86.8438,21.3281 86.2344,21.1094 Q85.625,20.8906 85,20.8906 Q84.2344,20.8906 83.6016,21.2188 Q82.9688,21.5469 82.4766,22.2969 Q81.9844,23.0469 81.9844,24.0781 L81.9844,25.1719 Q81.9844,26.4063 82.875,27.2266 Q83.7656,28.0469 85.3594,28.0469 Q86.2969,28.0469 86.9531,27.7969 Q87.3438,27.6406 87.7656,27.2031 Q88.0313,26.9375 88.1797,26.8594 Q88.3281,26.7813 88.5313,26.7813 Q88.8594,26.7813 89.1172,27.0391 Q89.375,27.2969 89.375,27.6406 Q89.375,27.9844 89.0313,28.3906 Q88.5313,28.9688 87.7344,29.2969 Q86.6563,29.75 85.3594,29.75 Q83.8438,29.75 82.6406,29.125 Q81.6563,28.625 80.9688,27.5547 Q80.2813,26.4844 80.2813,25.2031 L80.2813,24.0469 Q80.2813,22.7188 80.8984,21.5703 Q81.5156,20.4219 82.6094,19.8047 Q83.7031,19.1875 84.9375,19.1875 Q85.6719,19.1875 86.3203,19.3516 Q86.9688,19.5156 87.5156,19.875 Z "/><text fill="#000000" font-family="sans-serif" font-size="12" lengthAdjust="spacingAndGlyphs" textLength="34" x="105.25" y="28.9102">Player</text><line style="stroke: #A80036; stroke-width: 1.5;" x1="7" x2="205" y1="40" y2="40"/><text fill="#000000" font-family="sans-serif" font-size="11" lengthAdjust="spacingAndGlyphs" textLength="26" x="12" y="55.4189">name</text><text fill="#000000" font-family="sans-serif" font-size="11" lengthAdjust="spacingAndGlyphs" textLength="34" x="12" y="69.2549">symbol</text><line style="stroke: #A80036; stroke-width: 1.5;" x1="7" x2="205" y1="75.6719" y2="75.6719"/><text fill="#000000" font-family="sans-serif" font-size="11" lengthAdjust="spacingAndGlyphs" textLength="188" x="12" y="91.0908">makeMove(theBoard : Board, theMove)</text><!--class Board--><rect fill="#FEFECE" filter="url(#f1o2o0znn1umtq)" height="67.6719" id="Board" style="stroke: #A80036; stroke-width: 1.5;" width="129" x="241.5" y="19"/><ellipse cx="285.3" cy="35" fill="#ADD1B2" rx="11" ry="11" style="stroke: #A80036; stroke-width: 1.0;"/><path d="M288.0656,30.875 Q288.2219,30.6563 288.4094,30.5469 Q288.5969,30.4375 288.8156,30.4375 Q289.1906,30.4375 289.425,30.6953 Q289.6594,30.9531 289.6594,31.5625 L289.6594,33.0156 Q289.6594,33.625 289.425,33.8906 Q289.1906,34.1563 288.8156,34.1563 Q288.4719,34.1563 288.2688,33.9531 Q288.0656,33.7656 287.9563,33.25 Q287.9094,32.8906 287.7219,32.7031 Q287.3938,32.3281 286.7844,32.1094 Q286.175,31.8906 285.55,31.8906 Q284.7844,31.8906 284.1516,32.2188 Q283.5188,32.5469 283.0266,33.2969 Q282.5344,34.0469 282.5344,35.0781 L282.5344,36.1719 Q282.5344,37.4063 283.425,38.2266 Q284.3156,39.0469 285.9094,39.0469 Q286.8469,39.0469 287.5031,38.7969 Q287.8938,38.6406 288.3156,38.2031 Q288.5813,37.9375 288.7297,37.8594 Q288.8781,37.7813 289.0813,37.7813 Q289.4094,37.7813 289.6672,38.0391 Q289.925,38.2969 289.925,38.6406 Q289.925,38.9844 289.5813,39.3906 Q289.0813,39.9688 288.2844,40.2969 Q287.2063,40.75 285.9094,40.75 Q284.3938,40.75 283.1906,40.125 Q282.2063,39.625 281.5188,38.5547 Q280.8313,37.4844 280.8313,36.2031 L280.8313,35.0469 Q280.8313,33.7188 281.4484,32.5703 Q282.0656,31.4219 283.1594,30.8047 Q284.2531,30.1875 285.4875,30.1875 Q286.2219,30.1875 286.8703,30.3516 Q287.5188,30.5156 288.0656,30.875 Z "/><text fill="#000000" font-family="sans-serif" font-size="12" lengthAdjust="spacingAndGlyphs" textLength="33" x="305.7" y="39.9102">Board</text><line style="stroke: #A80036; stroke-width: 1.5;" x1="242.5" x2="369.5" y1="51" y2="51"/><text fill="#000000" font-family="sans-serif" font-size="11" lengthAdjust="spacingAndGlyphs" textLength="77" x="247.5" y="66.4189">getCell(position)</text><text fill="#000000" font-family="sans-serif" font-size="11" lengthAdjust="spacingAndGlyphs" textLength="117" x="247.5" y="80.2549">setCell(position, symbol)</text><!--class Strategy--><rect fill="#FEFECE" filter="url(#f1o2o0znn1umtq)" height="32" id="Strategy" style="stroke: #A80036; stroke-width: 1.5;" width="76" x="68" y="176"/><ellipse cx="83" cy="192" fill="#ADD1B2" rx="11" ry="11" style="stroke: #A80036; stroke-width: 1.0;"/><path d="M85.7656,187.875 Q85.9219,187.6563 86.1094,187.5469 Q86.2969,187.4375 86.5156,187.4375 Q86.8906,187.4375 87.125,187.6953 Q87.3594,187.9531 87.3594,188.5625 L87.3594,190.0156 Q87.3594,190.625 87.125,190.8906 Q86.8906,191.1563 86.5156,191.1563 Q86.1719,191.1563 85.9688,190.9531 Q85.7656,190.7656 85.6563,190.25 Q85.6094,189.8906 85.4219,189.7031 Q85.0938,189.3281 84.4844,189.1094 Q83.875,188.8906 83.25,188.8906 Q82.4844,188.8906 81.8516,189.2188 Q81.2188,189.5469 80.7266,190.2969 Q80.2344,191.0469 80.2344,192.0781 L80.2344,193.1719 Q80.2344,194.4063 81.125,195.2266 Q82.0156,196.0469 83.6094,196.0469 Q84.5469,196.0469 85.2031,195.7969 Q85.5938,195.6406 86.0156,195.2031 Q86.2813,194.9375 86.4297,194.8594 Q86.5781,194.7813 86.7813,194.7813 Q87.1094,194.7813 87.3672,195.0391 Q87.625,195.2969 87.625,195.6406 Q87.625,195.9844 87.2813,196.3906 Q86.7813,196.9688 85.9844,197.2969 Q84.9063,197.75 83.6094,197.75 Q82.0938,197.75 80.8906,197.125 Q79.9063,196.625 79.2188,195.5547 Q78.5313,194.4844 78.5313,193.2031 L78.5313,192.0469 Q78.5313,190.7188 79.1484,189.5703 Q79.7656,188.4219 80.8594,187.8047 Q81.9531,187.1875 83.1875,187.1875 Q83.9219,187.1875 84.5703,187.3516 Q85.2188,187.5156 85.7656,187.875 Z "/><text fill="#000000" font-family="sans-serif" font-size="12" lengthAdjust="spacingAndGlyphs" textLength="44" x="97" y="196.9102">Strategy</text><!--link Player to Strategy--><path d="M106,98.102 C106,122.5546 106,151.7788 106,170.8322 " fill="none" id="Player-Strategy" style="stroke: #A80036; stroke-width: 1.0;"/><polygon fill="#A80036" points="106,175.9241,110,166.9241,106,170.9241,102,166.9241,106,175.9241" style="stroke: #A80036; stroke-width: 1.0;"/><text fill="#000000" font-family="sans-serif" font-size="13" lengthAdjust="spacingAndGlyphs" textLength="49" x="107" y="142.4951">employs</text><!--
@startuml
hide empty members

Player : name
Player : symbol
Player : makeMove(theBoard : Board, theMove)

Board : getCell(position)
Board : setCell(position, symbol)

class Strategy {

}

Player - -> Strategy: employs

@enduml

PlantUML version 1.2018.12(Sun Oct 21 06:15:15 EDT 2018)
(GPL source distribution)
Java Runtime: Java(TM) SE Runtime Environment
JVM: Java HotSpot(TM) 64-Bit Server VM
Java Version: 1.8.0_172-b11
Operating System: Windows 10
OS Version: 10.0
Default Encoding: Cp1252
Language: en
Country: US
--></g></svg>