<?xml version="1.0" encoding="UTF-8" standalone="no"?><svg xmlns="http://www.w3.org/2000/svg" xmlns:xlink="http://www.w3.org/1999/xlink" contentScriptType="application/ecmascript" contentStyleType="text/css" height="495px" preserveAspectRatio="none" style="width:644px;height:495px;" version="1.1" viewBox="0 0 644 495" width="644px" zoomAndPan="magnify"><defs><filter height="300%" id="fzzxa3jprkm32" width="300%" x="-1" y="-1"><feGaussianBlur result="blurOut" stdDeviation="2.0"/><feColorMatrix in="blurOut" result="blurOut2" type="matrix" values="0 0 0 0 0 0 0 0 0 0 0 0 0 0 0 0 0 0 .4 0"/><feOffset dx="4.0" dy="4.0" in="blurOut2" result="blurOut3"/><feBlend in="SourceGraphic" in2="blurOut3" mode="normal"/></filter></defs><g><!--class Player--><rect fill="#FEFECE" filter="url(#fzzxa3jprkm32)" height="89.5078" id="Player" style="stroke: #A80036; stroke-width: 1.5;" width="149" x="423.5" y="8"/><ellipse cx="476.75" cy="24" fill="#ADD1B2" rx="11" ry="11" style="stroke: #A80036; stroke-width: 1.0;"/><path d="M479.5156,19.875 Q479.6719,19.6563 479.8594,19.5469 Q480.0469,19.4375 480.2656,19.4375 Q480.6406,19.4375 480.875,19.6953 Q481.1094,19.9531 481.1094,20.5625 L481.1094,22.0156 Q481.1094,22.625 480.875,22.8906 Q480.6406,23.1563 480.2656,23.1563 Q479.9219,23.1563 479.7188,22.9531 Q479.5156,22.7656 479.4063,22.25 Q479.3594,21.8906 479.1719,21.7031 Q478.8438,21.3281 478.2344,21.1094 Q477.625,20.8906 477,20.8906 Q476.2344,20.8906 475.6016,21.2188 Q474.9688,21.5469 474.4766,22.2969 Q473.9844,23.0469 473.9844,24.0781 L473.9844,25.1719 Q473.9844,26.4063 474.875,27.2266 Q475.7656,28.0469 477.3594,28.0469 Q478.2969,28.0469 478.9531,27.7969 Q479.3438,27.6406 479.7656,27.2031 Q480.0313,26.9375 480.1797,26.8594 Q480.3281,26.7813 480.5313,26.7813 Q480.8594,26.7813 481.1172,27.0391 Q481.375,27.2969 481.375,27.6406 Q481.375,27.9844 481.0313,28.3906 Q480.5313,28.9688 479.7344,29.2969 Q478.6563,29.75 477.3594,29.75 Q475.8438,29.75 474.6406,29.125 Q473.6563,28.625 472.9688,27.5547 Q472.2813,26.4844 472.2813,25.2031 L472.2813,24.0469 Q472.2813,22.7188 472.8984,21.5703 Q473.5156,20.4219 474.6094,19.8047 Q475.7031,19.1875 476.9375,19.1875 Q477.6719,19.1875 478.3203,19.3516 Q478.9688,19.5156 479.5156,19.875 Z "/><text fill="#000000" font-family="sans-serif" font-size="12" lengthAdjust="spacingAndGlyphs" textLength="34" x="497.25" y="28.9102">Player</text><line style="stroke: #A80036; stroke-width: 1.5;" x1="424.5" x2="571.5" y1="40" y2="40"/><text fill="#000000" font-family="sans-serif" font-size="11" lengthAdjust="spacingAndGlyphs" textLength="26" x="429.5" y="55.4189">name</text><text fill="#000000" font-family="sans-serif" font-size="11" lengthAdjust="spacingAndGlyphs" textLength="34" x="429.5" y="69.2549">symbol</text><line style="stroke: #A80036; stroke-width: 1.5;" x1="424.5" x2="571.5" y1="75.6719" y2="75.6719"/><text fill="#000000" font-family="sans-serif" font-size="11" lengthAdjust="spacingAndGlyphs" textLength="137" x="429.5" y="91.0908">nextMove(theBoard : Board)</text><!--class Board--><rect fill="#FEFECE" filter="url(#fzzxa3jprkm32)" height="81.5078" id="Board" style="stroke: #A80036; stroke-width: 1.5;" width="129" x="47.5" y="12"/><ellipse cx="91.3" cy="28" fill="#ADD1B2" rx="11" ry="11" style="stroke: #A80036; stroke-width: 1.0;"/><path d="M94.0656,23.875 Q94.2219,23.6563 94.4094,23.5469 Q94.5969,23.4375 94.8156,23.4375 Q95.1906,23.4375 95.425,23.6953 Q95.6594,23.9531 95.6594,24.5625 L95.6594,26.0156 Q95.6594,26.625 95.425,26.8906 Q95.1906,27.1563 94.8156,27.1563 Q94.4719,27.1563 94.2688,26.9531 Q94.0656,26.7656 93.9563,26.25 Q93.9094,25.8906 93.7219,25.7031 Q93.3938,25.3281 92.7844,25.1094 Q92.175,24.8906 91.55,24.8906 Q90.7844,24.8906 90.1516,25.2188 Q89.5188,25.5469 89.0266,26.2969 Q88.5344,27.0469 88.5344,28.0781 L88.5344,29.1719 Q88.5344,30.4063 89.425,31.2266 Q90.3156,32.0469 91.9094,32.0469 Q92.8469,32.0469 93.5031,31.7969 Q93.8938,31.6406 94.3156,31.2031 Q94.5813,30.9375 94.7297,30.8594 Q94.8781,30.7813 95.0813,30.7813 Q95.4094,30.7813 95.6672,31.0391 Q95.925,31.2969 95.925,31.6406 Q95.925,31.9844 95.5813,32.3906 Q95.0813,32.9688 94.2844,33.2969 Q93.2063,33.75 91.9094,33.75 Q90.3938,33.75 89.1906,33.125 Q88.2063,32.625 87.5188,31.5547 Q86.8313,30.4844 86.8313,29.2031 L86.8313,28.0469 Q86.8313,26.7188 87.4484,25.5703 Q88.0656,24.4219 89.1594,23.8047 Q90.2531,23.1875 91.4875,23.1875 Q92.2219,23.1875 92.8703,23.3516 Q93.5188,23.5156 94.0656,23.875 Z "/><text fill="#000000" font-family="sans-serif" font-size="12" lengthAdjust="spacingAndGlyphs" textLength="33" x="111.7" y="32.9102">Board</text><line style="stroke: #A80036; stroke-width: 1.5;" x1="48.5" x2="175.5" y1="44" y2="44"/><text fill="#000000" font-family="sans-serif" font-size="11" lengthAdjust="spacingAndGlyphs" textLength="77" x="53.5" y="59.4189">getCell(position)</text><text fill="#000000" font-family="sans-serif" font-size="11" lengthAdjust="spacingAndGlyphs" textLength="117" x="53.5" y="73.2549">setCell(position, symbol)</text><text fill="#000000" font-family="sans-serif" font-size="11" lengthAdjust="spacingAndGlyphs" textLength="32" x="53.5" y="87.0908">isFull()</text><!--class Strategy--><rect fill="#FEFECE" filter="url(#fzzxa3jprkm32)" height="32" id="Strategy" style="stroke: #A80036; stroke-width: 1.5;" width="76" x="212" y="37"/><ellipse cx="227" cy="53" fill="#ADD1B2" rx="11" ry="11" style="stroke: #A80036; stroke-width: 1.0;"/><path d="M229.7656,48.875 Q229.9219,48.6563 230.1094,48.5469 Q230.2969,48.4375 230.5156,48.4375 Q230.8906,48.4375 231.125,48.6953 Q231.3594,48.9531 231.3594,49.5625 L231.3594,51.0156 Q231.3594,51.625 231.125,51.8906 Q230.8906,52.1563 230.5156,52.1563 Q230.1719,52.1563 229.9688,51.9531 Q229.7656,51.7656 229.6563,51.25 Q229.6094,50.8906 229.4219,50.7031 Q229.0938,50.3281 228.4844,50.1094 Q227.875,49.8906 227.25,49.8906 Q226.4844,49.8906 225.8516,50.2188 Q225.2188,50.5469 224.7266,51.2969 Q224.2344,52.0469 224.2344,53.0781 L224.2344,54.1719 Q224.2344,55.4063 225.125,56.2266 Q226.0156,57.0469 227.6094,57.0469 Q228.5469,57.0469 229.2031,56.7969 Q229.5938,56.6406 230.0156,56.2031 Q230.2813,55.9375 230.4297,55.8594 Q230.5781,55.7813 230.7813,55.7813 Q231.1094,55.7813 231.3672,56.0391 Q231.625,56.2969 231.625,56.6406 Q231.625,56.9844 231.2813,57.3906 Q230.7813,57.9688 229.9844,58.2969 Q228.9063,58.75 227.6094,58.75 Q226.0938,58.75 224.8906,58.125 Q223.9063,57.625 223.2188,56.5547 Q222.5313,55.4844 222.5313,54.2031 L222.5313,53.0469 Q222.5313,51.7188 223.1484,50.5703 Q223.7656,49.4219 224.8594,48.8047 Q225.9531,48.1875 227.1875,48.1875 Q227.9219,48.1875 228.5703,48.3516 Q229.2188,48.5156 229.7656,48.875 Z "/><text fill="#000000" font-family="sans-serif" font-size="12" lengthAdjust="spacingAndGlyphs" textLength="44" x="241" y="57.9102">Strategy</text><!--class Referee--><rect fill="#FEFECE" filter="url(#fzzxa3jprkm32)" height="95.3438" id="Referee" style="stroke: #A80036; stroke-width: 1.5;" width="212" x="6" y="197"/><ellipse cx="85.75" cy="213" fill="#ADD1B2" rx="11" ry="11" style="stroke: #A80036; stroke-width: 1.0;"/><path d="M88.5156,208.875 Q88.6719,208.6563 88.8594,208.5469 Q89.0469,208.4375 89.2656,208.4375 Q89.6406,208.4375 89.875,208.6953 Q90.1094,208.9531 90.1094,209.5625 L90.1094,211.0156 Q90.1094,211.625 89.875,211.8906 Q89.6406,212.1563 89.2656,212.1563 Q88.9219,212.1563 88.7188,211.9531 Q88.5156,211.7656 88.4063,211.25 Q88.3594,210.8906 88.1719,210.7031 Q87.8438,210.3281 87.2344,210.1094 Q86.625,209.8906 86,209.8906 Q85.2344,209.8906 84.6016,210.2188 Q83.9688,210.5469 83.4766,211.2969 Q82.9844,212.0469 82.9844,213.0781 L82.9844,214.1719 Q82.9844,215.4063 83.875,216.2266 Q84.7656,217.0469 86.3594,217.0469 Q87.2969,217.0469 87.9531,216.7969 Q88.3438,216.6406 88.7656,216.2031 Q89.0313,215.9375 89.1797,215.8594 Q89.3281,215.7813 89.5313,215.7813 Q89.8594,215.7813 90.1172,216.0391 Q90.375,216.2969 90.375,216.6406 Q90.375,216.9844 90.0313,217.3906 Q89.5313,217.9688 88.7344,218.2969 Q87.6563,218.75 86.3594,218.75 Q84.8438,218.75 83.6406,218.125 Q82.6563,217.625 81.9688,216.5547 Q81.2813,215.4844 81.2813,214.2031 L81.2813,213.0469 Q81.2813,211.7188 81.8984,210.5703 Q82.5156,209.4219 83.6094,208.8047 Q84.7031,208.1875 85.9375,208.1875 Q86.6719,208.1875 87.3203,208.3516 Q87.9688,208.5156 88.5156,208.875 Z "/><text fill="#000000" font-family="sans-serif" font-size="12" lengthAdjust="spacingAndGlyphs" textLength="44" x="106.25" y="217.9102">Referee</text><line style="stroke: #A80036; stroke-width: 1.5;" x1="7" x2="217" y1="229" y2="229"/><text fill="#000000" font-family="sans-serif" font-size="11" lengthAdjust="spacingAndGlyphs" textLength="200" x="12" y="244.4189">validate(selectedMove, theBoard : Board)</text><text fill="#000000" font-family="sans-serif" font-size="11" lengthAdjust="spacingAndGlyphs" textLength="150" x="12" y="258.2549">checkForWin(theBoard: Board)</text><text fill="#000000" font-family="sans-serif" font-size="11" lengthAdjust="spacingAndGlyphs" textLength="156" x="12" y="272.0908">checkForLoss(theBoard: Board)</text><text fill="#000000" font-family="sans-serif" font-size="11" lengthAdjust="spacingAndGlyphs" textLength="179" x="12" y="285.9268">checkForStalemate(theBoard: Board)</text><!--class Game--><rect fill="#FEFECE" filter="url(#fzzxa3jprkm32)" height="172.5234" id="Game" style="stroke: #A80036; stroke-width: 1.5;" width="118" x="253" y="158"/><ellipse cx="291.4" cy="174" fill="#ADD1B2" rx="11" ry="11" style="stroke: #A80036; stroke-width: 1.0;"/><path d="M294.1656,169.875 Q294.3219,169.6563 294.5094,169.5469 Q294.6969,169.4375 294.9156,169.4375 Q295.2906,169.4375 295.525,169.6953 Q295.7594,169.9531 295.7594,170.5625 L295.7594,172.0156 Q295.7594,172.625 295.525,172.8906 Q295.2906,173.1563 294.9156,173.1563 Q294.5719,173.1563 294.3688,172.9531 Q294.1656,172.7656 294.0563,172.25 Q294.0094,171.8906 293.8219,171.7031 Q293.4938,171.3281 292.8844,171.1094 Q292.275,170.8906 291.65,170.8906 Q290.8844,170.8906 290.2516,171.2188 Q289.6188,171.5469 289.1266,172.2969 Q288.6344,173.0469 288.6344,174.0781 L288.6344,175.1719 Q288.6344,176.4063 289.525,177.2266 Q290.4156,178.0469 292.0094,178.0469 Q292.9469,178.0469 293.6031,177.7969 Q293.9938,177.6406 294.4156,177.2031 Q294.6813,176.9375 294.8297,176.8594 Q294.9781,176.7813 295.1813,176.7813 Q295.5094,176.7813 295.7672,177.0391 Q296.025,177.2969 296.025,177.6406 Q296.025,177.9844 295.6813,178.3906 Q295.1813,178.9688 294.3844,179.2969 Q293.3063,179.75 292.0094,179.75 Q290.4938,179.75 289.2906,179.125 Q288.3063,178.625 287.6188,177.5547 Q286.9313,176.4844 286.9313,175.2031 L286.9313,174.0469 Q286.9313,172.7188 287.5484,171.5703 Q288.1656,170.4219 289.2594,169.8047 Q290.3531,169.1875 291.5875,169.1875 Q292.3219,169.1875 292.9703,169.3516 Q293.6188,169.5156 294.1656,169.875 Z "/><text fill="#000000" font-family="sans-serif" font-size="12" lengthAdjust="spacingAndGlyphs" textLength="34" x="310.6" y="178.9102">Game</text><line style="stroke: #A80036; stroke-width: 1.5;" x1="254" x2="370" y1="190" y2="190"/><text fill="#000000" font-family="sans-serif" font-size="11" lengthAdjust="spacingAndGlyphs" textLength="72" x="259" y="205.4189">player1: Player</text><text fill="#000000" font-family="sans-serif" font-size="11" lengthAdjust="spacingAndGlyphs" textLength="72" x="259" y="219.2549">player2: Player</text><line style="stroke: #A80036; stroke-width: 1.5;" x1="254" x2="370" y1="225.6719" y2="225.6719"/><text fill="#000000" font-family="sans-serif" font-size="11" lengthAdjust="spacingAndGlyphs" textLength="96" x="259" y="241.0908">getWinner() : Player</text><text fill="#000000" font-family="sans-serif" font-size="11" lengthAdjust="spacingAndGlyphs" textLength="90" x="259" y="254.9268">getLoser() : Player</text><text fill="#000000" font-family="sans-serif" font-size="11" lengthAdjust="spacingAndGlyphs" textLength="79" x="259" y="268.7627">playOneRound()</text><text fill="#000000" font-family="sans-serif" font-size="11" lengthAdjust="spacingAndGlyphs" textLength="40" x="259" y="282.5986">isOver()</text><text fill="#000000" font-family="sans-serif" font-size="11" lengthAdjust="spacingAndGlyphs" textLength="77" x="259" y="296.4346">endedWithWin()</text><text fill="#000000" font-family="sans-serif" font-size="11" lengthAdjust="spacingAndGlyphs" textLength="83" x="259" y="310.2705">endedWithLoss()</text><text fill="#000000" font-family="sans-serif" font-size="11" lengthAdjust="spacingAndGlyphs" textLength="106" x="259" y="324.1064">endedWithStalemate()</text><!--class HumanPlayer--><rect fill="#FEFECE" filter="url(#fzzxa3jprkm32)" height="32" id="HumanPlayer" style="stroke: #A80036; stroke-width: 1.5;" width="107" x="370.5" y="452"/><ellipse cx="385.5" cy="468" fill="#ADD1B2" rx="11" ry="11" style="stroke: #A80036; stroke-width: 1.0;"/><path d="M388.2656,463.875 Q388.4219,463.6563 388.6094,463.5469 Q388.7969,463.4375 389.0156,463.4375 Q389.3906,463.4375 389.625,463.6953 Q389.8594,463.9531 389.8594,464.5625 L389.8594,466.0156 Q389.8594,466.625 389.625,466.8906 Q389.3906,467.1563 389.0156,467.1563 Q388.6719,467.1563 388.4688,466.9531 Q388.2656,466.7656 388.1563,466.25 Q388.1094,465.8906 387.9219,465.7031 Q387.5938,465.3281 386.9844,465.1094 Q386.375,464.8906 385.75,464.8906 Q384.9844,464.8906 384.3516,465.2188 Q383.7188,465.5469 383.2266,466.2969 Q382.7344,467.0469 382.7344,468.0781 L382.7344,469.1719 Q382.7344,470.4063 383.625,471.2266 Q384.5156,472.0469 386.1094,472.0469 Q387.0469,472.0469 387.7031,471.7969 Q388.0938,471.6406 388.5156,471.2031 Q388.7813,470.9375 388.9297,470.8594 Q389.0781,470.7813 389.2813,470.7813 Q389.6094,470.7813 389.8672,471.0391 Q390.125,471.2969 390.125,471.6406 Q390.125,471.9844 389.7813,472.3906 Q389.2813,472.9688 388.4844,473.2969 Q387.4063,473.75 386.1094,473.75 Q384.5938,473.75 383.3906,473.125 Q382.4063,472.625 381.7188,471.5547 Q381.0313,470.4844 381.0313,469.2031 L381.0313,468.0469 Q381.0313,466.7188 381.6484,465.5703 Q382.2656,464.4219 383.3594,463.8047 Q384.4531,463.1875 385.6875,463.1875 Q386.4219,463.1875 387.0703,463.3516 Q387.7188,463.5156 388.2656,463.875 Z "/><text fill="#000000" font-family="sans-serif" font-size="12" lengthAdjust="spacingAndGlyphs" textLength="75" x="399.5" y="472.9102">HumanPlayer</text><!--class ComputerPlayer--><rect fill="#FEFECE" filter="url(#fzzxa3jprkm32)" height="32" id="ComputerPlayer" style="stroke: #A80036; stroke-width: 1.5;" width="121" x="512.5" y="452"/><ellipse cx="527.5" cy="468" fill="#ADD1B2" rx="11" ry="11" style="stroke: #A80036; stroke-width: 1.0;"/><path d="M530.2656,463.875 Q530.4219,463.6563 530.6094,463.5469 Q530.7969,463.4375 531.0156,463.4375 Q531.3906,463.4375 531.625,463.6953 Q531.8594,463.9531 531.8594,464.5625 L531.8594,466.0156 Q531.8594,466.625 531.625,466.8906 Q531.3906,467.1563 531.0156,467.1563 Q530.6719,467.1563 530.4688,466.9531 Q530.2656,466.7656 530.1563,466.25 Q530.1094,465.8906 529.9219,465.7031 Q529.5938,465.3281 528.9844,465.1094 Q528.375,464.8906 527.75,464.8906 Q526.9844,464.8906 526.3516,465.2188 Q525.7188,465.5469 525.2266,466.2969 Q524.7344,467.0469 524.7344,468.0781 L524.7344,469.1719 Q524.7344,470.4063 525.625,471.2266 Q526.5156,472.0469 528.1094,472.0469 Q529.0469,472.0469 529.7031,471.7969 Q530.0938,471.6406 530.5156,471.2031 Q530.7813,470.9375 530.9297,470.8594 Q531.0781,470.7813 531.2813,470.7813 Q531.6094,470.7813 531.8672,471.0391 Q532.125,471.2969 532.125,471.6406 Q532.125,471.9844 531.7813,472.3906 Q531.2813,472.9688 530.4844,473.2969 Q529.4063,473.75 528.1094,473.75 Q526.5938,473.75 525.3906,473.125 Q524.4063,472.625 523.7188,471.5547 Q523.0313,470.4844 523.0313,469.2031 L523.0313,468.0469 Q523.0313,466.7188 523.6484,465.5703 Q524.2656,464.4219 525.3594,463.8047 Q526.4531,463.1875 527.6875,463.1875 Q528.4219,463.1875 529.0703,463.3516 Q529.7188,463.5156 530.2656,463.875 Z "/><text fill="#000000" font-family="sans-serif" font-size="12" lengthAdjust="spacingAndGlyphs" textLength="89" x="541.5" y="472.9102">ComputerPlayer</text><!--link Player to HumanPlayer--><path d="M486.516,118.095 C468.917,216.312 436.308,398.3102 426.719,451.8267 " fill="none" id="Player-HumanPlayer" style="stroke: #A80036; stroke-width: 1.0;"/><polygon fill="none" points="479.663,116.65,490.081,98.198,493.444,119.119,479.663,116.65" style="stroke: #A80036; stroke-width: 1.0;"/><!--link Player to ComputerPlayer--><path d="M509.64,118.095 C527.476,216.312 560.526,398.3102 570.245,451.8267 " fill="none" id="Player-ComputerPlayer" style="stroke: #A80036; stroke-width: 1.0;"/><polygon fill="none" points="502.713,119.127,506.026,98.198,516.487,116.626,502.713,119.127" style="stroke: #A80036; stroke-width: 1.0;"/><!--link Board to Strategy--><!--link Board to Referee--><!--link Referee to Game--><!--
@startuml
hide empty members

class Player {
    name
    symbol

    nextMove(theBoard : Board)
}

class Board {
    getCell(position)
    setCell(position, symbol)
    isFull()
}

class Strategy {

}

class Referee {
    validate(selectedMove, theBoard : Board)
    checkForWin(theBoard: Board)
    checkForLoss(theBoard: Board)
    checkForStalemate(theBoard: Board)
}

class Game {
    player1: Player
    player2: Player

    getWinner() : Player
    getLoser() : Player
    playOneRound()
    isOver()
    endedWithWin()
    endedWithLoss()
    endedWithStalemate()
}

Player <|- - - - HumanPlayer
Player <|- - - - ComputerPlayer

@enduml

PlantUML version 1.2018.12(Sun Oct 21 06:15:15 EDT 2018)
(GPL source distribution)
Java Runtime: Java(TM) SE Runtime Environment
JVM: Java HotSpot(TM) 64-Bit Server VM
Java Version: 1.8.0_172-b11
Operating System: Windows 10
OS Version: 10.0
Default Encoding: Cp1252
Language: en
Country: US
--></g></svg>