<?xml version="1.0" encoding="us-ascii" standalone="no"?><svg xmlns="http://www.w3.org/2000/svg" xmlns:xlink="http://www.w3.org/1999/xlink" contentStyleType="text/css" height="273px" preserveAspectRatio="none" style="width:914px;height:273px;background:#FFFFFF;" version="1.1" viewBox="0 0 914 273" width="914px" zoomAndPan="magnify"><defs/><g><!--class LinkedList--><g id="elem_LinkedList"><rect codeLine="6" fill="#F1F1F1" height="129.4844" id="LinkedList" rx="2.5" ry="2.5" style="stroke:#181818;stroke-width:0.5;" width="160" x="396" y="72.5"/><ellipse cx="438" cy="88.5" fill="#ADD1B2" rx="11" ry="11" style="stroke:#181818;stroke-width:1.0;"/><path d="M440.9688,94.1406 Q440.3906,94.4375 439.75,94.5781 Q439.1094,94.7344 438.4063,94.7344 Q435.9063,94.7344 434.5781,93.0938 Q433.2656,91.4375 433.2656,88.3125 Q433.2656,85.1875 434.5781,83.5313 Q435.9063,81.875 438.4063,81.875 Q439.1094,81.875 439.75,82.0313 Q440.4063,82.1875 440.9688,82.4844 L440.9688,85.2031 Q440.3438,84.625 439.75,84.3594 Q439.1563,84.0781 438.5313,84.0781 Q437.1875,84.0781 436.5,85.1563 Q435.8125,86.2188 435.8125,88.3125 Q435.8125,90.4063 436.5,91.4844 Q437.1875,92.5469 438.5313,92.5469 Q439.1563,92.5469 439.75,92.2813 Q440.3438,92 440.9688,91.4219 L440.9688,94.1406 Z " fill="#000000"/><text fill="#000000" font-family="sans-serif" font-size="14" lengthAdjust="spacing" textLength="68" x="458" y="93.3467">LinkedList</text><line style="stroke:#181818;stroke-width:0.5;" x1="397" x2="555" y1="104.5" y2="104.5"/><text fill="#000000" font-family="sans-serif" font-size="14" lengthAdjust="spacing" textLength="148" x="402" y="121.4951">LinkedList.Node head</text><text fill="#000000" font-family="sans-serif" font-size="14" lengthAdjust="spacing" textLength="132" x="402" y="137.792">LinkedList.Node tail</text><line style="stroke:#181818;stroke-width:0.5;" x1="397" x2="555" y1="145.0938" y2="145.0938"/><text fill="#000000" font-family="sans-serif" font-size="14" lengthAdjust="spacing" textLength="112" x="402" y="162.0889">Iterator iterator()</text><text fill="#000000" font-family="sans-serif" font-size="14" lengthAdjust="spacing" textLength="4" x="402" y="178.3857">&#160;</text><text fill="#000000" font-family="sans-serif" font-size="14" lengthAdjust="spacing" textLength="59" x="402" y="194.6826">int size()</text></g><!--class LinkedList.Node--><g id="elem_LinkedList.Node"><rect codeLine="15" fill="#F1F1F1" height="72.5938" id="LinkedList.Node" rx="2.5" ry="2.5" style="stroke:#181818;stroke-width:0.5;" width="230" x="677" y="100.5"/><ellipse cx="733.25" cy="116.5" fill="#ADD1B2" rx="11" ry="11" style="stroke:#181818;stroke-width:1.0;"/><path d="M736.2188,122.1406 Q735.6406,122.4375 735,122.5781 Q734.3594,122.7344 733.6563,122.7344 Q731.1563,122.7344 729.8281,121.0938 Q728.5156,119.4375 728.5156,116.3125 Q728.5156,113.1875 729.8281,111.5313 Q731.1563,109.875 733.6563,109.875 Q734.3594,109.875 735,110.0313 Q735.6563,110.1875 736.2188,110.4844 L736.2188,113.2031 Q735.5938,112.625 735,112.3594 Q734.4063,112.0781 733.7813,112.0781 Q732.4375,112.0781 731.75,113.1563 Q731.0625,114.2188 731.0625,116.3125 Q731.0625,118.4063 731.75,119.4844 Q732.4375,120.5469 733.7813,120.5469 Q734.4063,120.5469 735,120.2813 Q735.5938,120 736.2188,119.4219 L736.2188,122.1406 Z " fill="#000000"/><text fill="#000000" font-family="sans-serif" font-size="14" lengthAdjust="spacing" textLength="109" x="753.75" y="121.3467">LinkedList.Node</text><line style="stroke:#181818;stroke-width:0.5;" x1="678" x2="906" y1="132.5" y2="132.5"/><text fill="#000000" font-family="sans-serif" font-size="14" lengthAdjust="spacing" textLength="75" x="683" y="149.4951">Room data</text><text fill="#000000" font-family="sans-serif" font-size="14" lengthAdjust="spacing" textLength="218" x="683" y="165.792">LinkedList.Node currentPosition</text></g><!--class House--><g id="elem_House"><rect codeLine="20" fill="#F1F1F1" height="259.8594" id="House" rx="2.5" ry="2.5" style="stroke:#181818;stroke-width:0.5;" width="207" x="7" y="7"/><ellipse cx="83.75" cy="23" fill="#ADD1B2" rx="11" ry="11" style="stroke:#181818;stroke-width:1.0;"/><path d="M86.7188,28.6406 Q86.1406,28.9375 85.5,29.0781 Q84.8594,29.2344 84.1563,29.2344 Q81.6563,29.2344 80.3281,27.5938 Q79.0156,25.9375 79.0156,22.8125 Q79.0156,19.6875 80.3281,18.0313 Q81.6563,16.375 84.1563,16.375 Q84.8594,16.375 85.5,16.5313 Q86.1563,16.6875 86.7188,16.9844 L86.7188,19.7031 Q86.0938,19.125 85.5,18.8594 Q84.9063,18.5781 84.2813,18.5781 Q82.9375,18.5781 82.25,19.6563 Q81.5625,20.7188 81.5625,22.8125 Q81.5625,24.9063 82.25,25.9844 Q82.9375,27.0469 84.2813,27.0469 Q84.9063,27.0469 85.5,26.7813 Q86.0938,26.5 86.7188,25.9219 L86.7188,28.6406 Z " fill="#000000"/><text fill="#000000" font-family="sans-serif" font-size="14" lengthAdjust="spacing" textLength="45" x="104.25" y="27.8467">House</text><line style="stroke:#181818;stroke-width:0.5;" x1="8" x2="213" y1="39" y2="39"/><text fill="#000000" font-family="sans-serif" font-size="14" lengthAdjust="spacing" textLength="116" x="13" y="55.9951">Collection rooms</text><line style="stroke:#181818;stroke-width:0.5;" x1="8" x2="213" y1="63.2969" y2="63.2969"/><text fill="#000000" font-family="sans-serif" font-size="14" lengthAdjust="spacing" textLength="55" x="13" y="80.292">House()</text><text fill="#000000" font-family="sans-serif" font-size="14" lengthAdjust="spacing" textLength="138" x="13" y="96.5889">House(String name)</text><text fill="#000000" font-family="sans-serif" font-size="14" lengthAdjust="spacing" textLength="4" x="13" y="112.8857">&#160;</text><text fill="#000000" font-family="sans-serif" font-size="14" lengthAdjust="spacing" textLength="195" x="13" y="129.1826">void addRoom(Room toAdd)</text><text fill="#000000" font-family="sans-serif" font-size="14" lengthAdjust="spacing" textLength="4" x="13" y="145.4795">&#160;</text><text fill="#000000" font-family="sans-serif" font-size="14" lengthAdjust="spacing" textLength="112" x="13" y="161.7764">Iterator iterator()</text><text fill="#000000" font-family="sans-serif" font-size="14" lengthAdjust="spacing" textLength="4" x="13" y="178.0732">&#160;</text><text fill="#000000" font-family="sans-serif" font-size="14" lengthAdjust="spacing" textLength="59" x="13" y="194.3701">int size()</text><text fill="#000000" font-family="sans-serif" font-size="14" lengthAdjust="spacing" textLength="4" x="13" y="210.667">&#160;</text><text fill="#000000" font-family="sans-serif" font-size="14" lengthAdjust="spacing" textLength="108" x="13" y="226.9639">String toString()</text><text fill="#000000" font-family="sans-serif" font-size="14" lengthAdjust="spacing" textLength="187" x="13" y="243.2607">boolean equals(Object rhs)</text><text fill="#000000" font-family="sans-serif" font-size="14" lengthAdjust="spacing" textLength="102" x="13" y="259.5576">int hashCode()</text></g><!--reverse link LinkedList to LinkedList.Node--><g id="link_LinkedList_LinkedList.Node"><path codeLine="37" d="M568.24,137 C604.75,137 636.78,137 676.79,137 " fill="none" id="LinkedList-backto-LinkedList.Node" style="stroke:#181818;stroke-width:1.0;"/><polygon fill="#181818" points="556.24,137,562.24,141,568.24,137,562.24,133,556.24,137" style="stroke:#181818;stroke-width:1.0;"/></g><!--link House to LinkedList--><g id="link_House_LinkedList"><path codeLine="38" d="M214.21,137 C271.84,137 336.63,137 389.91,137 " fill="none" id="House-to-LinkedList" style="stroke:#181818;stroke-width:1.0;"/><polygon fill="#181818" points="395.91,137,386.91,133,390.91,137,386.91,141,395.91,137" style="stroke:#181818;stroke-width:1.0;"/><text fill="#000000" font-family="sans-serif" font-size="13" lengthAdjust="spacing" textLength="60" x="328.1693" y="149.5819">collection</text></g><!--SRC=[ZP71JiCm38RlUGfhfnQfF08IsWMa2H0yWTkOnP368tQH0F7kXAPi4-n0JdOSVV__Ev4U3KmWypOOUCuq64joBh0de75dRp3Is5DMfsIWjCEC9XcI979kYAWA6qxFv3Ui1XyEoZbSdDz80GL2Vt9WoD7DaskZ2kQbQDewu5Ha-PrA__bNi6Agwht821uDJqeDKywKx4wKvuXxs9LC-eDOIunr1P0BJQk5-KNHFzGFbZbj8U58YyrNOG_e_RU9PdPYSkbz-_zqSx-0JMgnYFOYaJ01lKmOjRdjduf9o47RFIIWXdN9MTTqz2DdNTVzNeQhcSkaku3Li0-zEdhelW00]--></g></svg>