<?xml version="1.0" encoding="UTF-8" standalone="no"?><svg xmlns="http://www.w3.org/2000/svg" xmlns:xlink="http://www.w3.org/1999/xlink" contentScriptType="application/ecmascript" contentStyleType="text/css" height="122px" preserveAspectRatio="none" style="width:912px;height:122px;" version="1.1" viewBox="0 0 912 122" width="912px" zoomAndPan="magnify"><defs><filter height="300%" id="f37bx35lc6pht" width="300%" x="-1" y="-1"><feGaussianBlur result="blurOut" stdDeviation="2.0"/><feColorMatrix in="blurOut" result="blurOut2" type="matrix" values="0 0 0 0 0 0 0 0 0 0 0 0 0 0 0 0 0 0 .4 0"/><feOffset dx="4.0" dy="4.0" in="blurOut2" result="blurOut3"/><feBlend in="SourceGraphic" in2="blurOut3" mode="normal"/></filter></defs><g><!--class LinkedList--><rect fill="#FEFECE" filter="url(#f37bx35lc6pht)" height="32" id="LinkedList" style="stroke: #A80036; stroke-width: 1.5;" width="89" x="444" y="8"/><ellipse cx="459" cy="24" fill="#ADD1B2" rx="11" ry="11" style="stroke: #A80036; stroke-width: 1.0;"/><path d="M461.7656,19.875 Q461.9219,19.6563 462.1094,19.5469 Q462.2969,19.4375 462.5156,19.4375 Q462.8906,19.4375 463.125,19.6953 Q463.3594,19.9531 463.3594,20.5625 L463.3594,22.0156 Q463.3594,22.625 463.125,22.8906 Q462.8906,23.1563 462.5156,23.1563 Q462.1719,23.1563 461.9688,22.9531 Q461.7656,22.7656 461.6563,22.25 Q461.6094,21.8906 461.4219,21.7031 Q461.0938,21.3281 460.4844,21.1094 Q459.875,20.8906 459.25,20.8906 Q458.4844,20.8906 457.8516,21.2188 Q457.2188,21.5469 456.7266,22.2969 Q456.2344,23.0469 456.2344,24.0781 L456.2344,25.1719 Q456.2344,26.4063 457.125,27.2266 Q458.0156,28.0469 459.6094,28.0469 Q460.5469,28.0469 461.2031,27.7969 Q461.5938,27.6406 462.0156,27.2031 Q462.2813,26.9375 462.4297,26.8594 Q462.5781,26.7813 462.7813,26.7813 Q463.1094,26.7813 463.3672,27.0391 Q463.625,27.2969 463.625,27.6406 Q463.625,27.9844 463.2813,28.3906 Q462.7813,28.9688 461.9844,29.2969 Q460.9063,29.75 459.6094,29.75 Q458.0938,29.75 456.8906,29.125 Q455.9063,28.625 455.2188,27.5547 Q454.5313,26.4844 454.5313,25.2031 L454.5313,24.0469 Q454.5313,22.7188 455.1484,21.5703 Q455.7656,20.4219 456.8594,19.8047 Q457.9531,19.1875 459.1875,19.1875 Q459.9219,19.1875 460.5703,19.3516 Q461.2188,19.5156 461.7656,19.875 Z "/><text fill="#000000" font-family="sans-serif" font-size="12" lengthAdjust="spacingAndGlyphs" textLength="57" x="473" y="28.9102">LinkedList</text><!--class LinkedList::Node--><rect fill="#FEFECE" filter="url(#f37bx35lc6pht)" height="32" id="LinkedList::Node" style="stroke: #A80036; stroke-width: 1.5;" width="125" x="776" y="8"/><ellipse cx="791" cy="24" fill="#ADD1B2" rx="11" ry="11" style="stroke: #A80036; stroke-width: 1.0;"/><path d="M793.7656,19.875 Q793.9219,19.6563 794.1094,19.5469 Q794.2969,19.4375 794.5156,19.4375 Q794.8906,19.4375 795.125,19.6953 Q795.3594,19.9531 795.3594,20.5625 L795.3594,22.0156 Q795.3594,22.625 795.125,22.8906 Q794.8906,23.1563 794.5156,23.1563 Q794.1719,23.1563 793.9688,22.9531 Q793.7656,22.7656 793.6563,22.25 Q793.6094,21.8906 793.4219,21.7031 Q793.0938,21.3281 792.4844,21.1094 Q791.875,20.8906 791.25,20.8906 Q790.4844,20.8906 789.8516,21.2188 Q789.2188,21.5469 788.7266,22.2969 Q788.2344,23.0469 788.2344,24.0781 L788.2344,25.1719 Q788.2344,26.4063 789.125,27.2266 Q790.0156,28.0469 791.6094,28.0469 Q792.5469,28.0469 793.2031,27.7969 Q793.5938,27.6406 794.0156,27.2031 Q794.2813,26.9375 794.4297,26.8594 Q794.5781,26.7813 794.7813,26.7813 Q795.1094,26.7813 795.3672,27.0391 Q795.625,27.2969 795.625,27.6406 Q795.625,27.9844 795.2813,28.3906 Q794.7813,28.9688 793.9844,29.2969 Q792.9063,29.75 791.6094,29.75 Q790.0938,29.75 788.8906,29.125 Q787.9063,28.625 787.2188,27.5547 Q786.5313,26.4844 786.5313,25.2031 L786.5313,24.0469 Q786.5313,22.7188 787.1484,21.5703 Q787.7656,20.4219 788.8594,19.8047 Q789.9531,19.1875 791.1875,19.1875 Q791.9219,19.1875 792.5703,19.3516 Q793.2188,19.5156 793.7656,19.875 Z "/><text fill="#000000" font-family="sans-serif" font-size="12" lengthAdjust="spacingAndGlyphs" textLength="93" x="805" y="28.9102">LinkedList::Node</text><!--class House--><rect fill="#FEFECE" filter="url(#f37bx35lc6pht)" height="32" id="House" style="stroke: #A80036; stroke-width: 1.5;" width="69" x="6" y="44"/><ellipse cx="21" cy="60" fill="#ADD1B2" rx="11" ry="11" style="stroke: #A80036; stroke-width: 1.0;"/><path d="M23.7656,55.875 Q23.9219,55.6563 24.1094,55.5469 Q24.2969,55.4375 24.5156,55.4375 Q24.8906,55.4375 25.125,55.6953 Q25.3594,55.9531 25.3594,56.5625 L25.3594,58.0156 Q25.3594,58.625 25.125,58.8906 Q24.8906,59.1563 24.5156,59.1563 Q24.1719,59.1563 23.9688,58.9531 Q23.7656,58.7656 23.6563,58.25 Q23.6094,57.8906 23.4219,57.7031 Q23.0938,57.3281 22.4844,57.1094 Q21.875,56.8906 21.25,56.8906 Q20.4844,56.8906 19.8516,57.2188 Q19.2188,57.5469 18.7266,58.2969 Q18.2344,59.0469 18.2344,60.0781 L18.2344,61.1719 Q18.2344,62.4063 19.125,63.2266 Q20.0156,64.0469 21.6094,64.0469 Q22.5469,64.0469 23.2031,63.7969 Q23.5938,63.6406 24.0156,63.2031 Q24.2813,62.9375 24.4297,62.8594 Q24.5781,62.7813 24.7813,62.7813 Q25.1094,62.7813 25.3672,63.0391 Q25.625,63.2969 25.625,63.6406 Q25.625,63.9844 25.2813,64.3906 Q24.7813,64.9688 23.9844,65.2969 Q22.9063,65.75 21.6094,65.75 Q20.0938,65.75 18.8906,65.125 Q17.9063,64.625 17.2188,63.5547 Q16.5313,62.4844 16.5313,61.2031 L16.5313,60.0469 Q16.5313,58.7188 17.1484,57.5703 Q17.7656,56.4219 18.8594,55.8047 Q19.9531,55.1875 21.1875,55.1875 Q21.9219,55.1875 22.5703,55.3516 Q23.2188,55.5156 23.7656,55.875 Z "/><text fill="#000000" font-family="sans-serif" font-size="12" lengthAdjust="spacingAndGlyphs" textLength="37" x="35" y="64.9102">House</text><!--class Room--><rect fill="#FEFECE" filter="url(#f37bx35lc6pht)" height="32" id="Room" style="stroke: #A80036; stroke-width: 1.5;" width="66" x="318" y="79"/><ellipse cx="333" cy="95" fill="#ADD1B2" rx="11" ry="11" style="stroke: #A80036; stroke-width: 1.0;"/><path d="M335.7656,90.875 Q335.9219,90.6563 336.1094,90.5469 Q336.2969,90.4375 336.5156,90.4375 Q336.8906,90.4375 337.125,90.6953 Q337.3594,90.9531 337.3594,91.5625 L337.3594,93.0156 Q337.3594,93.625 337.125,93.8906 Q336.8906,94.1563 336.5156,94.1563 Q336.1719,94.1563 335.9688,93.9531 Q335.7656,93.7656 335.6563,93.25 Q335.6094,92.8906 335.4219,92.7031 Q335.0938,92.3281 334.4844,92.1094 Q333.875,91.8906 333.25,91.8906 Q332.4844,91.8906 331.8516,92.2188 Q331.2188,92.5469 330.7266,93.2969 Q330.2344,94.0469 330.2344,95.0781 L330.2344,96.1719 Q330.2344,97.4063 331.125,98.2266 Q332.0156,99.0469 333.6094,99.0469 Q334.5469,99.0469 335.2031,98.7969 Q335.5938,98.6406 336.0156,98.2031 Q336.2813,97.9375 336.4297,97.8594 Q336.5781,97.7813 336.7813,97.7813 Q337.1094,97.7813 337.3672,98.0391 Q337.625,98.2969 337.625,98.6406 Q337.625,98.9844 337.2813,99.3906 Q336.7813,99.9688 335.9844,100.2969 Q334.9063,100.75 333.6094,100.75 Q332.0938,100.75 330.8906,100.125 Q329.9063,99.625 329.2188,98.5547 Q328.5313,97.4844 328.5313,96.2031 L328.5313,95.0469 Q328.5313,93.7188 329.1484,92.5703 Q329.7656,91.4219 330.8594,90.8047 Q331.9531,90.1875 333.1875,90.1875 Q333.9219,90.1875 334.5703,90.3516 Q335.2188,90.5156 335.7656,90.875 Z "/><text fill="#000000" font-family="sans-serif" font-size="12" lengthAdjust="spacingAndGlyphs" textLength="34" x="347" y="99.9102">Room</text><!--link LinkedList to LinkedList::Node--><path d="M546.459,24 C609.534,24 710.864,24 775.787,24 " fill="none" id="LinkedList-LinkedList::Node" style="stroke: #A80036; stroke-width: 1.0;"/><polygon fill="#A80036" points="533.222,24,539.222,28,545.222,24,539.222,20,533.222,24" style="stroke: #A80036; stroke-width: 1.0;"/><!--link House to Room--><path d="M88.2287,65.3015 C151.582,72.489 263.084,85.1392 317.832,91.3505 " fill="none" id="House-Room" style="stroke: #A80036; stroke-width: 1.0;"/><polygon fill="#A80036" points="75.1022,63.8122,80.613,68.4631,87.0257,65.165,81.5149,60.5141,75.1022,63.8122" style="stroke: #A80036; stroke-width: 1.0;"/><!--link House to LinkedList--><path d="M75.0357,47.51 C105.9843,37.1123 153.448,24 196,24 C196,24 196,24 258,24 C320.343,24 392.213,24 438.674,24 " fill="none" id="House-LinkedList" style="stroke: #A80036; stroke-width: 1.0;"/><polygon fill="#A80036" points="443.93,24,434.93,20,438.93,24,434.93,28,443.93,24" style="stroke: #A80036; stroke-width: 1.0;"/><text fill="#000000" font-family="sans-serif" font-size="13" lengthAdjust="spacingAndGlyphs" textLength="53" x="383.1567" y="38.3893">container</text><!--
@startuml
left to right direction

hide empty members

class LinkedList {
    
}

class LinkedList::Node {
    
}

class House {
    
}

class Room {
    
}

LinkedList *- - - - - LinkedList::Node
House *- - - - - Room
House - - - - - -> "container" LinkedList

@enduml

PlantUML version 1.2018.12(Sun Oct 21 06:15:15 EDT 2018)
(GPL source distribution)
Java Runtime: Java(TM) SE Runtime Environment
JVM: Java HotSpot(TM) 64-Bit Server VM
Java Version: 1.8.0_172-b11
Operating System: Windows 10
OS Version: 10.0
Default Encoding: Cp1252
Language: en
Country: US
--></g></svg>