<?xml version="1.0" encoding="us-ascii" standalone="no"?><svg xmlns="http://www.w3.org/2000/svg" xmlns:xlink="http://www.w3.org/1999/xlink" contentStyleType="text/css" height="191px" preserveAspectRatio="none" style="width:356px;height:191px;background:#FFFFFF;" version="1.1" viewBox="0 0 356 191" width="356px" zoomAndPan="magnify"><defs/><g><!--class House--><g id="elem_House"><rect codeLine="7" fill="#F1F1F1" height="32" id="House" rx="2.5" ry="2.5" style="stroke:#181818;stroke-width:0.5;" width="77" x="39" y="10.5659"/><ellipse cx="54" cy="26.5659" fill="#ADD1B2" rx="11" ry="11" style="stroke:#181818;stroke-width:1.0;"/><path d="M56.9688,32.2065 Q56.3906,32.5034 55.75,32.644 Q55.1094,32.8003 54.4063,32.8003 Q51.9063,32.8003 50.5781,31.1597 Q49.2656,29.5034 49.2656,26.3784 Q49.2656,23.2534 50.5781,21.5972 Q51.9063,19.9409 54.4063,19.9409 Q55.1094,19.9409 55.75,20.0972 Q56.4063,20.2534 56.9688,20.5503 L56.9688,23.269 Q56.3438,22.6909 55.75,22.4253 Q55.1563,22.144 54.5313,22.144 Q53.1875,22.144 52.5,23.2222 Q51.8125,24.2847 51.8125,26.3784 Q51.8125,28.4722 52.5,29.5503 Q53.1875,30.6128 54.5313,30.6128 Q55.1563,30.6128 55.75,30.3472 Q56.3438,30.0659 56.9688,29.4878 L56.9688,32.2065 Z " fill="#000000"/><text fill="#000000" font-family="sans-serif" font-size="14" lengthAdjust="spacing" textLength="45" x="68" y="31.4126">House</text></g><!--class java.util.Iterable--><g id="elem_java.util.Iterable"><rect codeLine="11" fill="#F1F1F1" height="64.5625" id="java.util.Iterable" rx="2.5" ry="2.5" style="stroke:#181818;stroke-width:0.5;" width="141" x="7" y="111.5659"/><ellipse cx="22.9" cy="131.6987" fill="#B4A7E5" rx="11" ry="11" style="stroke:#181818;stroke-width:1.0;"/><path d="M18.8219,127.4644 L18.8219,125.3081 L26.2125,125.3081 L26.2125,127.4644 L23.7438,127.4644 L23.7438,135.5425 L26.2125,135.5425 L26.2125,137.6987 L18.8219,137.6987 L18.8219,135.5425 L21.2906,135.5425 L21.2906,127.4644 L18.8219,127.4644 Z " fill="#000000"/><text fill="#000000" font-family="sans-serif" font-size="12" font-style="italic" lengthAdjust="spacing" textLength="70" x="55.6" y="127.7046">&#171;interface&#187;</text><text fill="#000000" font-family="sans-serif" font-size="14" font-style="italic" lengthAdjust="spacing" textLength="107" x="37.1" y="143.5298">java.util.Iterable</text><line style="stroke:#181818;stroke-width:0.5;" x1="8" x2="147" y1="151.8315" y2="151.8315"/><text fill="#000000" font-family="sans-serif" font-size="14" lengthAdjust="spacing" textLength="129" x="13" y="168.8267">+iterator(): Iterator</text></g><!--class House.Iterator--><g id="elem_House.Iterator"><rect codeLine="15" fill="#F1F1F1" height="32" id="House.Iterator" rx="2.5" ry="2.5" style="stroke:#181818;stroke-width:0.5;" width="130" x="206.5" y="10.5659"/><ellipse cx="221.5" cy="26.5659" fill="#ADD1B2" rx="11" ry="11" style="stroke:#181818;stroke-width:1.0;"/><path d="M224.4688,32.2065 Q223.8906,32.5034 223.25,32.644 Q222.6094,32.8003 221.9063,32.8003 Q219.4063,32.8003 218.0781,31.1597 Q216.7656,29.5034 216.7656,26.3784 Q216.7656,23.2534 218.0781,21.5972 Q219.4063,19.9409 221.9063,19.9409 Q222.6094,19.9409 223.25,20.0972 Q223.9063,20.2534 224.4688,20.5503 L224.4688,23.269 Q223.8438,22.6909 223.25,22.4253 Q222.6563,22.144 222.0313,22.144 Q220.6875,22.144 220,23.2222 Q219.3125,24.2847 219.3125,26.3784 Q219.3125,28.4722 220,29.5503 Q220.6875,30.6128 222.0313,30.6128 Q222.6563,30.6128 223.25,30.3472 Q223.8438,30.0659 224.4688,29.4878 L224.4688,32.2065 Z " fill="#000000"/><text fill="#000000" font-family="sans-serif" font-size="14" lengthAdjust="spacing" textLength="98" x="235.5" y="31.4126">House.Iterator</text></g><!--class java.util.Iterator--><g id="elem_java.util.Iterator"><rect codeLine="19" fill="#F1F1F1" height="80.8594" id="java.util.Iterator" rx="2.5" ry="2.5" style="stroke:#181818;stroke-width:0.5;" width="155" x="194" y="103.5659"/><ellipse cx="217.1" cy="123.6987" fill="#B4A7E5" rx="11" ry="11" style="stroke:#181818;stroke-width:1.0;"/><path d="M213.0219,119.4644 L213.0219,117.3081 L220.4125,117.3081 L220.4125,119.4644 L217.9438,119.4644 L217.9438,127.5425 L220.4125,127.5425 L220.4125,129.6987 L213.0219,129.6987 L213.0219,127.5425 L215.4906,127.5425 L215.4906,119.4644 L213.0219,119.4644 Z " fill="#000000"/><text fill="#000000" font-family="sans-serif" font-size="12" font-style="italic" lengthAdjust="spacing" textLength="70" x="250.4" y="119.7046">&#171;interface&#187;</text><text fill="#000000" font-family="sans-serif" font-size="14" font-style="italic" lengthAdjust="spacing" textLength="105" x="232.9" y="135.5298">java.util.Iterator</text><line style="stroke:#181818;stroke-width:0.5;" x1="195" x2="348" y1="143.8315" y2="143.8315"/><text fill="#000000" font-family="sans-serif" font-size="14" lengthAdjust="spacing" textLength="70" x="200" y="160.8267">+next(): T</text><text fill="#000000" font-family="sans-serif" font-size="14" lengthAdjust="spacing" textLength="143" x="200" y="177.1235">+hasNext(): boolean</text></g><!--link House to java.util.Iterable--><g id="link_House_java.util.Iterable"><path codeLine="24" d="M77.5,42.6659 C77.5,60.0359 77.5,71.0259 77.5,93.3959 " fill="none" id="House-to-java.util.Iterable" style="stroke:#181818;stroke-width:1.0;stroke-dasharray:7.0,7.0;"/><polygon fill="none" points="77.5,111.3959,83.5,93.3959,71.5,93.3959,77.5,111.3959" style="stroke:#181818;stroke-width:1.0;"/></g><!--link House to House.Iterator--><g id="link_House_House.Iterator"><path codeLine="25" d="M116.29,26.5659 C142.06,26.5659 170.51,26.5659 200.42,26.5659 " fill="none" id="House-to-House.Iterator" style="stroke:#181818;stroke-width:1.0;"/><polygon fill="#181818" points="206.42,26.5659,197.42,22.5659,201.42,26.5659,197.42,30.5659,206.42,26.5659" style="stroke:#181818;stroke-width:1.0;"/><text fill="#000000" font-family="sans-serif" font-size="13" lengthAdjust="spacing" textLength="54" x="134.25" y="19.6328">provides</text></g><!--link House.Iterator to java.util.Iterator--><g id="link_House.Iterator_java.util.Iterator"><path codeLine="26" d="M271.5,42.6659 C271.5,58.0159 271.5,64.4459 271.5,85.3559 " fill="none" id="House.Iterator-to-java.util.Iterator" style="stroke:#181818;stroke-width:1.0;stroke-dasharray:7.0,7.0;"/><polygon fill="none" points="271.5,103.3559,277.5,85.3559,265.5,85.3559,271.5,103.3559" style="stroke:#181818;stroke-width:1.0;"/></g><!--SRC=[XP0z3i8m38Ltdy8Z214n8rI9ZIuiS06t615eaofs4Rzt9u624Af49kUz-FDpv61TGu5gB2iIcQi6MxJAUUdTobuO9m0xks7akj4prbmN70I45OLJe_g0pZi6U09muLjXl0BS0QnJ3big6VTq9DEghKmU9IegnjdiOsTPRC1uHZQv4JaOJZ7lwaJwOfkt_cz8Uj8xnF59qu3rwxeZMNPAuNt5v1BsjOSnjwmdVEUEivz8Kso2FyRl4lZ9sWTAkpq0]--></g></svg>