<?xml version="1.0" encoding="UTF-8" standalone="no"?><svg xmlns="http://www.w3.org/2000/svg" xmlns:xlink="http://www.w3.org/1999/xlink" contentScriptType="application/ecmascript" contentStyleType="text/css" height="143px" preserveAspectRatio="none" style="width:266px;height:143px;" version="1.1" viewBox="0 0 266 143" width="266px" zoomAndPan="magnify"><defs><filter height="300%" id="ff20kwq7g1xat" width="300%" x="-1" y="-1"><feGaussianBlur result="blurOut" stdDeviation="2.0"/><feColorMatrix in="blurOut" result="blurOut2" type="matrix" values="0 0 0 0 0 0 0 0 0 0 0 0 0 0 0 0 0 0 .4 0"/><feOffset dx="4.0" dy="4.0" in="blurOut2" result="blurOut3"/><feBlend in="SourceGraphic" in2="blurOut3" mode="normal"/></filter></defs><g><!--class LinkedList--><rect fill="#FEFECE" filter="url(#ff20kwq7g1xat)" height="32" id="LinkedList" style="stroke: #A80036; stroke-width: 1.5;" width="89" x="6" y="8"/><ellipse cx="21" cy="24" fill="#ADD1B2" rx="11" ry="11" style="stroke: #A80036; stroke-width: 1.0;"/><path d="M23.7656,19.875 Q23.9219,19.6563 24.1094,19.5469 Q24.2969,19.4375 24.5156,19.4375 Q24.8906,19.4375 25.125,19.6953 Q25.3594,19.9531 25.3594,20.5625 L25.3594,22.0156 Q25.3594,22.625 25.125,22.8906 Q24.8906,23.1563 24.5156,23.1563 Q24.1719,23.1563 23.9688,22.9531 Q23.7656,22.7656 23.6563,22.25 Q23.6094,21.8906 23.4219,21.7031 Q23.0938,21.3281 22.4844,21.1094 Q21.875,20.8906 21.25,20.8906 Q20.4844,20.8906 19.8516,21.2188 Q19.2188,21.5469 18.7266,22.2969 Q18.2344,23.0469 18.2344,24.0781 L18.2344,25.1719 Q18.2344,26.4063 19.125,27.2266 Q20.0156,28.0469 21.6094,28.0469 Q22.5469,28.0469 23.2031,27.7969 Q23.5938,27.6406 24.0156,27.2031 Q24.2813,26.9375 24.4297,26.8594 Q24.5781,26.7813 24.7813,26.7813 Q25.1094,26.7813 25.3672,27.0391 Q25.625,27.2969 25.625,27.6406 Q25.625,27.9844 25.2813,28.3906 Q24.7813,28.9688 23.9844,29.2969 Q22.9063,29.75 21.6094,29.75 Q20.0938,29.75 18.8906,29.125 Q17.9063,28.625 17.2188,27.5547 Q16.5313,26.4844 16.5313,25.2031 L16.5313,24.0469 Q16.5313,22.7188 17.1484,21.5703 Q17.7656,20.4219 18.8594,19.8047 Q19.9531,19.1875 21.1875,19.1875 Q21.9219,19.1875 22.5703,19.3516 Q23.2188,19.5156 23.7656,19.875 Z "/><text fill="#000000" font-family="sans-serif" font-size="12" lengthAdjust="spacingAndGlyphs" textLength="57" x="35" y="28.9102">LinkedList</text><!--class LinkedList::Node--><rect fill="#FEFECE" filter="url(#ff20kwq7g1xat)" height="32" id="LinkedList::Node" style="stroke: #A80036; stroke-width: 1.5;" width="125" x="130" y="8"/><ellipse cx="145" cy="24" fill="#ADD1B2" rx="11" ry="11" style="stroke: #A80036; stroke-width: 1.0;"/><path d="M147.7656,19.875 Q147.9219,19.6563 148.1094,19.5469 Q148.2969,19.4375 148.5156,19.4375 Q148.8906,19.4375 149.125,19.6953 Q149.3594,19.9531 149.3594,20.5625 L149.3594,22.0156 Q149.3594,22.625 149.125,22.8906 Q148.8906,23.1563 148.5156,23.1563 Q148.1719,23.1563 147.9688,22.9531 Q147.7656,22.7656 147.6563,22.25 Q147.6094,21.8906 147.4219,21.7031 Q147.0938,21.3281 146.4844,21.1094 Q145.875,20.8906 145.25,20.8906 Q144.4844,20.8906 143.8516,21.2188 Q143.2188,21.5469 142.7266,22.2969 Q142.2344,23.0469 142.2344,24.0781 L142.2344,25.1719 Q142.2344,26.4063 143.125,27.2266 Q144.0156,28.0469 145.6094,28.0469 Q146.5469,28.0469 147.2031,27.7969 Q147.5938,27.6406 148.0156,27.2031 Q148.2813,26.9375 148.4297,26.8594 Q148.5781,26.7813 148.7813,26.7813 Q149.1094,26.7813 149.3672,27.0391 Q149.625,27.2969 149.625,27.6406 Q149.625,27.9844 149.2813,28.3906 Q148.7813,28.9688 147.9844,29.2969 Q146.9063,29.75 145.6094,29.75 Q144.0938,29.75 142.8906,29.125 Q141.9063,28.625 141.2188,27.5547 Q140.5313,26.4844 140.5313,25.2031 L140.5313,24.0469 Q140.5313,22.7188 141.1484,21.5703 Q141.7656,20.4219 142.8594,19.8047 Q143.9531,19.1875 145.1875,19.1875 Q145.9219,19.1875 146.5703,19.3516 Q147.2188,19.5156 147.7656,19.875 Z "/><text fill="#000000" font-family="sans-serif" font-size="12" lengthAdjust="spacingAndGlyphs" textLength="93" x="159" y="28.9102">LinkedList::Node</text><!--class House--><rect fill="#FEFECE" filter="url(#ff20kwq7g1xat)" height="32" id="House" style="stroke: #A80036; stroke-width: 1.5;" width="69" x="16" y="100"/><ellipse cx="31" cy="116" fill="#ADD1B2" rx="11" ry="11" style="stroke: #A80036; stroke-width: 1.0;"/><path d="M33.7656,111.875 Q33.9219,111.6563 34.1094,111.5469 Q34.2969,111.4375 34.5156,111.4375 Q34.8906,111.4375 35.125,111.6953 Q35.3594,111.9531 35.3594,112.5625 L35.3594,114.0156 Q35.3594,114.625 35.125,114.8906 Q34.8906,115.1563 34.5156,115.1563 Q34.1719,115.1563 33.9688,114.9531 Q33.7656,114.7656 33.6563,114.25 Q33.6094,113.8906 33.4219,113.7031 Q33.0938,113.3281 32.4844,113.1094 Q31.875,112.8906 31.25,112.8906 Q30.4844,112.8906 29.8516,113.2188 Q29.2188,113.5469 28.7266,114.2969 Q28.2344,115.0469 28.2344,116.0781 L28.2344,117.1719 Q28.2344,118.4063 29.125,119.2266 Q30.0156,120.0469 31.6094,120.0469 Q32.5469,120.0469 33.2031,119.7969 Q33.5938,119.6406 34.0156,119.2031 Q34.2813,118.9375 34.4297,118.8594 Q34.5781,118.7813 34.7813,118.7813 Q35.1094,118.7813 35.3672,119.0391 Q35.625,119.2969 35.625,119.6406 Q35.625,119.9844 35.2813,120.3906 Q34.7813,120.9688 33.9844,121.2969 Q32.9063,121.75 31.6094,121.75 Q30.0938,121.75 28.8906,121.125 Q27.9063,120.625 27.2188,119.5547 Q26.5313,118.4844 26.5313,117.2031 L26.5313,116.0469 Q26.5313,114.7188 27.1484,113.5703 Q27.7656,112.4219 28.8594,111.8047 Q29.9531,111.1875 31.1875,111.1875 Q31.9219,111.1875 32.5703,111.3516 Q33.2188,111.5156 33.7656,111.875 Z "/><text fill="#000000" font-family="sans-serif" font-size="12" lengthAdjust="spacingAndGlyphs" textLength="37" x="45" y="120.9102">House</text><!--class Room--><rect fill="#FEFECE" filter="url(#ff20kwq7g1xat)" height="32" id="Room" style="stroke: #A80036; stroke-width: 1.5;" width="66" x="120.5" y="100"/><ellipse cx="135.5" cy="116" fill="#ADD1B2" rx="11" ry="11" style="stroke: #A80036; stroke-width: 1.0;"/><path d="M138.2656,111.875 Q138.4219,111.6563 138.6094,111.5469 Q138.7969,111.4375 139.0156,111.4375 Q139.3906,111.4375 139.625,111.6953 Q139.8594,111.9531 139.8594,112.5625 L139.8594,114.0156 Q139.8594,114.625 139.625,114.8906 Q139.3906,115.1563 139.0156,115.1563 Q138.6719,115.1563 138.4688,114.9531 Q138.2656,114.7656 138.1563,114.25 Q138.1094,113.8906 137.9219,113.7031 Q137.5938,113.3281 136.9844,113.1094 Q136.375,112.8906 135.75,112.8906 Q134.9844,112.8906 134.3516,113.2188 Q133.7188,113.5469 133.2266,114.2969 Q132.7344,115.0469 132.7344,116.0781 L132.7344,117.1719 Q132.7344,118.4063 133.625,119.2266 Q134.5156,120.0469 136.1094,120.0469 Q137.0469,120.0469 137.7031,119.7969 Q138.0938,119.6406 138.5156,119.2031 Q138.7813,118.9375 138.9297,118.8594 Q139.0781,118.7813 139.2813,118.7813 Q139.6094,118.7813 139.8672,119.0391 Q140.125,119.2969 140.125,119.6406 Q140.125,119.9844 139.7813,120.3906 Q139.2813,120.9688 138.4844,121.2969 Q137.4063,121.75 136.1094,121.75 Q134.5938,121.75 133.3906,121.125 Q132.4063,120.625 131.7188,119.5547 Q131.0313,118.4844 131.0313,117.2031 L131.0313,116.0469 Q131.0313,114.7188 131.6484,113.5703 Q132.2656,112.4219 133.3594,111.8047 Q134.4531,111.1875 135.6875,111.1875 Q136.4219,111.1875 137.0703,111.3516 Q137.7188,111.5156 138.2656,111.875 Z "/><text fill="#000000" font-family="sans-serif" font-size="12" lengthAdjust="spacingAndGlyphs" textLength="34" x="149.5" y="120.9102">Room</text><!--link LinkedList to LinkedList::Node--><!--link LinkedList to House--><!--link House to Room--><!--
@startuml
hide empty members

class LinkedList {
    
}

class LinkedList::Node {
    
}

class House {
    
}

class Room {
    
}

@enduml

PlantUML version 1.2018.12(Sun Oct 21 06:15:15 EDT 2018)
(GPL source distribution)
Java Runtime: Java(TM) SE Runtime Environment
JVM: Java HotSpot(TM) 64-Bit Server VM
Java Version: 1.8.0_172-b11
Operating System: Windows 10
OS Version: 10.0
Default Encoding: Cp1252
Language: en
Country: US
--></g></svg>