<?xml version="1.0" encoding="us-ascii" standalone="no"?><svg xmlns="http://www.w3.org/2000/svg" xmlns:xlink="http://www.w3.org/1999/xlink" contentStyleType="text/css" height="275px" preserveAspectRatio="none" style="width:908px;height:275px;background:#FFFFFF;" version="1.1" viewBox="0 0 908 275" width="908px" zoomAndPan="magnify"><defs/><g><!--class Room--><g id="elem_Room"><rect codeLine="7" fill="#F1F1F1" height="227.2656" id="Room" rx="2.5" ry="2.5" style="stroke:#181818;stroke-width:0.5;" width="354" x="7" y="24"/><ellipse cx="159.25" cy="40" fill="#ADD1B2" rx="11" ry="11" style="stroke:#181818;stroke-width:1.0;"/><path d="M162.2188,45.6406 Q161.6406,45.9375 161,46.0781 Q160.3594,46.2344 159.6563,46.2344 Q157.1563,46.2344 155.8281,44.5938 Q154.5156,42.9375 154.5156,39.8125 Q154.5156,36.6875 155.8281,35.0313 Q157.1563,33.375 159.6563,33.375 Q160.3594,33.375 161,33.5313 Q161.6563,33.6875 162.2188,33.9844 L162.2188,36.7031 Q161.5938,36.125 161,35.8594 Q160.4063,35.5781 159.7813,35.5781 Q158.4375,35.5781 157.75,36.6563 Q157.0625,37.7188 157.0625,39.8125 Q157.0625,41.9063 157.75,42.9844 Q158.4375,44.0469 159.7813,44.0469 Q160.4063,44.0469 161,43.7813 Q161.5938,43.5 162.2188,42.9219 L162.2188,45.6406 Z " fill="#000000"/><text fill="#000000" font-family="sans-serif" font-size="14" lengthAdjust="spacing" textLength="41" x="179.75" y="44.8467">Room</text><line style="stroke:#181818;stroke-width:0.5;" x1="8" x2="360" y1="56" y2="56"/><text fill="#000000" font-family="sans-serif" font-size="14" lengthAdjust="spacing" textLength="83" x="13" y="72.9951">String name</text><line style="stroke:#181818;stroke-width:0.5;" x1="8" x2="360" y1="80.2969" y2="80.2969"/><text fill="#000000" font-family="sans-serif" font-size="14" lengthAdjust="spacing" textLength="51" x="13" y="97.292">Room()</text><text fill="#000000" font-family="sans-serif" font-size="14" lengthAdjust="spacing" textLength="281" x="13" y="113.5889">Room(Dimension l, Dimension w, Cost c)</text><text fill="#000000" font-family="sans-serif" font-size="14" lengthAdjust="spacing" textLength="342" x="13" y="129.8857">Room(String n, Dimension l, Dimension w, Cost c)</text><text fill="#000000" font-family="sans-serif" font-size="14" lengthAdjust="spacing" textLength="339" x="13" y="146.1826">Room(String n, DimensionSet d, Cost c, String fn)</text><text fill="#000000" font-family="sans-serif" font-size="14" lengthAdjust="spacing" textLength="4" x="13" y="162.4795">&#160;</text><text fill="#000000" font-family="sans-serif" font-size="14" lengthAdjust="spacing" textLength="92" x="13" y="178.7764">double area()</text><text fill="#000000" font-family="sans-serif" font-size="14" lengthAdjust="spacing" textLength="129" x="13" y="195.0732">Cost flooringCost()</text><text fill="#000000" font-family="sans-serif" font-size="14" lengthAdjust="spacing" textLength="108" x="13" y="211.3701">String toString()</text><text fill="#000000" font-family="sans-serif" font-size="14" lengthAdjust="spacing" textLength="187" x="13" y="227.667">boolean equals(Object rhs)</text><text fill="#000000" font-family="sans-serif" font-size="14" lengthAdjust="spacing" textLength="93" x="13" y="243.9639">Room clone()</text></g><!--class Room.Flooring--><g id="elem_Room.Flooring"><rect codeLine="22" fill="#F1F1F1" height="113.1875" id="Room.Flooring" rx="2.5" ry="2.5" style="stroke:#181818;stroke-width:0.5;" width="182" x="661.5" y="7"/><ellipse cx="699" cy="23" fill="#ADD1B2" rx="11" ry="11" style="stroke:#181818;stroke-width:1.0;"/><path d="M701.9688,28.6406 Q701.3906,28.9375 700.75,29.0781 Q700.1094,29.2344 699.4063,29.2344 Q696.9063,29.2344 695.5781,27.5938 Q694.2656,25.9375 694.2656,22.8125 Q694.2656,19.6875 695.5781,18.0313 Q696.9063,16.375 699.4063,16.375 Q700.1094,16.375 700.75,16.5313 Q701.4063,16.6875 701.9688,16.9844 L701.9688,19.7031 Q701.3438,19.125 700.75,18.8594 Q700.1563,18.5781 699.5313,18.5781 Q698.1875,18.5781 697.5,19.6563 Q696.8125,20.7188 696.8125,22.8125 Q696.8125,24.9063 697.5,25.9844 Q698.1875,27.0469 699.5313,27.0469 Q700.1563,27.0469 700.75,26.7813 Q701.3438,26.5 701.9688,25.9219 L701.9688,28.6406 Z " fill="#000000"/><text fill="#000000" font-family="sans-serif" font-size="14" lengthAdjust="spacing" textLength="100" x="718" y="27.8467">Room.Flooring</text><line style="stroke:#181818;stroke-width:0.5;" x1="662.5" x2="842.5" y1="39" y2="39"/><text fill="#000000" font-family="sans-serif" font-size="14" lengthAdjust="spacing" textLength="74" x="667.5" y="55.9951">String type</text><text fill="#000000" font-family="sans-serif" font-size="14" lengthAdjust="spacing" textLength="94" x="667.5" y="72.292">Cost unitCost</text><line style="stroke:#181818;stroke-width:0.5;" x1="662.5" x2="842.5" y1="79.5938" y2="79.5938"/><text fill="#000000" font-family="sans-serif" font-size="14" lengthAdjust="spacing" textLength="65" x="667.5" y="96.5889">Flooring()</text><text fill="#000000" font-family="sans-serif" font-size="14" lengthAdjust="spacing" textLength="170" x="667.5" y="112.8857">Flooring(String n, Cost c)</text></g><!--class Room.DimensionSet--><g id="elem_Room.DimensionSet"><rect codeLine="30" fill="#F1F1F1" height="113.1875" id="Room.DimensionSet" rx="2.5" ry="2.5" style="stroke:#181818;stroke-width:0.5;" width="297" x="604" y="155"/><ellipse cx="677.25" cy="171" fill="#ADD1B2" rx="11" ry="11" style="stroke:#181818;stroke-width:1.0;"/><path d="M680.2188,176.6406 Q679.6406,176.9375 679,177.0781 Q678.3594,177.2344 677.6563,177.2344 Q675.1563,177.2344 673.8281,175.5938 Q672.5156,173.9375 672.5156,170.8125 Q672.5156,167.6875 673.8281,166.0313 Q675.1563,164.375 677.6563,164.375 Q678.3594,164.375 679,164.5313 Q679.6563,164.6875 680.2188,164.9844 L680.2188,167.7031 Q679.5938,167.125 679,166.8594 Q678.4063,166.5781 677.7813,166.5781 Q676.4375,166.5781 675.75,167.6563 Q675.0625,168.7188 675.0625,170.8125 Q675.0625,172.9063 675.75,173.9844 Q676.4375,175.0469 677.7813,175.0469 Q678.4063,175.0469 679,174.7813 Q679.5938,174.5 680.2188,173.9219 L680.2188,176.6406 Z " fill="#000000"/><text fill="#000000" font-family="sans-serif" font-size="14" lengthAdjust="spacing" textLength="142" x="697.75" y="175.8467">Room.DimensionSet</text><line style="stroke:#181818;stroke-width:0.5;" x1="605" x2="900" y1="187" y2="187"/><text fill="#000000" font-family="sans-serif" font-size="14" lengthAdjust="spacing" textLength="122" x="610" y="203.9951">Dimension length</text><text fill="#000000" font-family="sans-serif" font-size="14" lengthAdjust="spacing" textLength="115" x="610" y="220.292">Dimension width</text><line style="stroke:#181818;stroke-width:0.5;" x1="605" x2="900" y1="227.5938" y2="227.5938"/><text fill="#000000" font-family="sans-serif" font-size="14" lengthAdjust="spacing" textLength="107" x="610" y="244.5889">DimensionSet()</text><text fill="#000000" font-family="sans-serif" font-size="14" lengthAdjust="spacing" textLength="285" x="610" y="260.8857">DimensionSet(Dimension l, Dimension w)</text></g><!--reverse link Room to Room.Flooring--><g id="link_Room_Room.Flooring"><path codeLine="38" d="M373.039,112.9361 C472.589,99.9361 580.94,85.78 661.44,75.26 " fill="none" id="Room-backto-Room.Flooring" style="stroke:#181818;stroke-width:1.0;"/><polygon fill="#181818" points="361.14,114.49,367.6074,117.6794,373.039,112.9361,366.5715,109.7467,361.14,114.49" style="stroke:#181818;stroke-width:1.0;"/></g><!--reverse link Room to Room.DimensionSet--><g id="link_Room_Room.DimensionSet"><path codeLine="39" d="M373.0389,162.0641 C450.8289,172.2241 529.36,182.48 603.58,192.18 " fill="none" id="Room-backto-Room.DimensionSet" style="stroke:#181818;stroke-width:1.0;"/><polygon fill="#181818" points="361.14,160.51,366.5714,165.2534,373.0389,162.0641,367.6075,157.3207,361.14,160.51" style="stroke:#181818;stroke-width:1.0;"/></g><!--SRC=[dL71JiKW4Bpp5NjyprH_GkFLnFS5jDss660hRFFoOlnteGK1enSvBREppEoWSM9W0gVcXM5K3WTMP8LOr8Y0PkKR63GzEYyyCdXSfPDC3YnP548CMdeFhqG6FWI4Ss6dx0nMcj2EGEoTpgLyKWQj3oAWEoYNQmUFv1c6YfhVgdd_6Re4vsEcTjdYPC-7mv6sNYD8Xp8PtPcJ9eh4U4buccGwYeJsH1gb1NpVfFQdb_ujf0XkySKL33ha5VYVTMGFpqcYpOvlAnORcrKSYyDhdaZItzUoTGwaLMgoEDIgJD7ElFm0hseCM0k6uIJSG7_zpcvYNn_kxkDfj_wbLJyhlW00]--></g></svg>