<?xml version="1.0" encoding="us-ascii" standalone="no"?><svg xmlns="http://www.w3.org/2000/svg" xmlns:xlink="http://www.w3.org/1999/xlink" contentStyleType="text/css" height="117px" preserveAspectRatio="none" style="width:824px;height:117px;background:#FFFFFF;" version="1.1" viewBox="0 0 824 117" width="824px" zoomAndPan="magnify"><defs/><g><!--class House--><g id="elem_House"><rect codeLine="6" fill="#F1F1F1" height="32" id="House" rx="2.5" ry="2.5" style="stroke:#181818;stroke-width:0.5;" width="77" x="7" y="43"/><ellipse cx="22" cy="59" fill="#ADD1B2" rx="11" ry="11" style="stroke:#181818;stroke-width:1.0;"/><path d="M24.9688,64.6406 Q24.3906,64.9375 23.75,65.0781 Q23.1094,65.2344 22.4063,65.2344 Q19.9063,65.2344 18.5781,63.5938 Q17.2656,61.9375 17.2656,58.8125 Q17.2656,55.6875 18.5781,54.0313 Q19.9063,52.375 22.4063,52.375 Q23.1094,52.375 23.75,52.5313 Q24.4063,52.6875 24.9688,52.9844 L24.9688,55.7031 Q24.3438,55.125 23.75,54.8594 Q23.1563,54.5781 22.5313,54.5781 Q21.1875,54.5781 20.5,55.6563 Q19.8125,56.7188 19.8125,58.8125 Q19.8125,60.9063 20.5,61.9844 Q21.1875,63.0469 22.5313,63.0469 Q23.1563,63.0469 23.75,62.7813 Q24.3438,62.5 24.9688,61.9219 L24.9688,64.6406 Z " fill="#000000"/><text fill="#000000" font-family="sans-serif" font-size="14" lengthAdjust="spacing" textLength="45" x="36" y="63.8467">House</text></g><!--class Room--><g id="elem_Room"><rect codeLine="10" fill="#F1F1F1" height="32" id="Room" rx="2.5" ry="2.5" style="stroke:#181818;stroke-width:0.5;" width="73" x="327" y="43"/><ellipse cx="342" cy="59" fill="#ADD1B2" rx="11" ry="11" style="stroke:#181818;stroke-width:1.0;"/><path d="M344.9688,64.6406 Q344.3906,64.9375 343.75,65.0781 Q343.1094,65.2344 342.4063,65.2344 Q339.9063,65.2344 338.5781,63.5938 Q337.2656,61.9375 337.2656,58.8125 Q337.2656,55.6875 338.5781,54.0313 Q339.9063,52.375 342.4063,52.375 Q343.1094,52.375 343.75,52.5313 Q344.4063,52.6875 344.9688,52.9844 L344.9688,55.7031 Q344.3438,55.125 343.75,54.8594 Q343.1563,54.5781 342.5313,54.5781 Q341.1875,54.5781 340.5,55.6563 Q339.8125,56.7188 339.8125,58.8125 Q339.8125,60.9063 340.5,61.9844 Q341.1875,63.0469 342.5313,63.0469 Q343.1563,63.0469 343.75,62.7813 Q344.3438,62.5 344.9688,61.9219 L344.9688,64.6406 Z " fill="#000000"/><text fill="#000000" font-family="sans-serif" font-size="14" lengthAdjust="spacing" textLength="41" x="356" y="63.8467">Room</text></g><!--class Room.Flooring--><g id="elem_Room.Flooring"><rect codeLine="14" fill="#F1F1F1" height="32" id="Room.Flooring" rx="2.5" ry="2.5" style="stroke:#181818;stroke-width:0.5;" width="132" x="664" y="7"/><ellipse cx="679" cy="23" fill="#ADD1B2" rx="11" ry="11" style="stroke:#181818;stroke-width:1.0;"/><path d="M681.9688,28.6406 Q681.3906,28.9375 680.75,29.0781 Q680.1094,29.2344 679.4063,29.2344 Q676.9063,29.2344 675.5781,27.5938 Q674.2656,25.9375 674.2656,22.8125 Q674.2656,19.6875 675.5781,18.0313 Q676.9063,16.375 679.4063,16.375 Q680.1094,16.375 680.75,16.5313 Q681.4063,16.6875 681.9688,16.9844 L681.9688,19.7031 Q681.3438,19.125 680.75,18.8594 Q680.1563,18.5781 679.5313,18.5781 Q678.1875,18.5781 677.5,19.6563 Q676.8125,20.7188 676.8125,22.8125 Q676.8125,24.9063 677.5,25.9844 Q678.1875,27.0469 679.5313,27.0469 Q680.1563,27.0469 680.75,26.7813 Q681.3438,26.5 681.9688,25.9219 L681.9688,28.6406 Z " fill="#000000"/><text fill="#000000" font-family="sans-serif" font-size="14" lengthAdjust="spacing" textLength="100" x="693" y="27.8467">Room.Flooring</text></g><!--class Room.DimensionSet--><g id="elem_Room.DimensionSet"><rect codeLine="18" fill="#F1F1F1" height="32" id="Room.DimensionSet" rx="2.5" ry="2.5" style="stroke:#181818;stroke-width:0.5;" width="174" x="643" y="78"/><ellipse cx="658" cy="94" fill="#ADD1B2" rx="11" ry="11" style="stroke:#181818;stroke-width:1.0;"/><path d="M660.9688,99.6406 Q660.3906,99.9375 659.75,100.0781 Q659.1094,100.2344 658.4063,100.2344 Q655.9063,100.2344 654.5781,98.5938 Q653.2656,96.9375 653.2656,93.8125 Q653.2656,90.6875 654.5781,89.0313 Q655.9063,87.375 658.4063,87.375 Q659.1094,87.375 659.75,87.5313 Q660.4063,87.6875 660.9688,87.9844 L660.9688,90.7031 Q660.3438,90.125 659.75,89.8594 Q659.1563,89.5781 658.5313,89.5781 Q657.1875,89.5781 656.5,90.6563 Q655.8125,91.7188 655.8125,93.8125 Q655.8125,95.9063 656.5,96.9844 Q657.1875,98.0469 658.5313,98.0469 Q659.1563,98.0469 659.75,97.7813 Q660.3438,97.5 660.9688,96.9219 L660.9688,99.6406 Z " fill="#000000"/><text fill="#000000" font-family="sans-serif" font-size="14" lengthAdjust="spacing" textLength="142" x="672" y="98.8467">Room.DimensionSet</text></g><!--reverse link House to Room--><g id="link_House_Room"><path codeLine="22" d="M96.3,59 C157.74,59 266.42,59 326.6,59 " fill="none" id="House-backto-Room" style="stroke:#181818;stroke-width:1.0;"/><polygon fill="#181818" points="84.3,59,90.3,63,96.3,59,90.3,55,84.3,59" style="stroke:#181818;stroke-width:1.0;"/></g><!--reverse link Room to Room.Flooring--><g id="link_Room_Room.Flooring"><path codeLine="23" d="M412.1198,51.3713 C430.0198,48.6113 440.19,47.26 460,45 C529.48,37.07 609.38,30.91 663.93,27.15 " fill="none" id="Room-backto-Room.Flooring" style="stroke:#181818;stroke-width:1.0;"/><polygon fill="#181818" points="400.26,53.2,406.7995,56.2389,412.1198,51.3713,405.5804,48.3324,400.26,53.2" style="stroke:#181818;stroke-width:1.0;"/></g><!--reverse link Room to Room.DimensionSet--><g id="link_Room_Room.DimensionSet"><path codeLine="24" d="M412.055,63.5674 C467.855,68.9274 565.55,78.31 642.87,85.73 " fill="none" id="Room-backto-Room.DimensionSet" style="stroke:#181818;stroke-width:1.0;"/><polygon fill="#181818" points="400.11,62.42,405.7,66.9754,412.055,63.5674,406.465,59.012,400.11,62.42" style="stroke:#181818;stroke-width:1.0;"/></g><!--SRC=[ROr12i9034NtEKNMWfv2nBMUO6o_RM1cKfAu4F7khIrAeMRvNdW_unuSoYPT7zoAeGdHIjHB2qOPuia5vGPpSWGxXcGfrBXg1L6JapkVzU7W5z7xIowgPGCEfwngKhkjEKf1zMdvEeqiTedkzf-RdsYEhial-4UjYpG2]--></g></svg>