<?xml version="1.0" encoding="us-ascii" standalone="no"?><svg xmlns="http://www.w3.org/2000/svg" xmlns:xlink="http://www.w3.org/1999/xlink" contentStyleType="text/css" height="544px" preserveAspectRatio="none" style="width:633px;height:544px;background:#FFFFFF;" version="1.1" viewBox="0 0 633 544" width="633px" zoomAndPan="magnify"><defs/><g><!--class QuestionPool--><g id="elem_QuestionPool"><rect codeLine="3" fill="#F1F1F1" height="105.1875" id="QuestionPool" rx="2.5" ry="2.5" style="stroke:#181818;stroke-width:0.5;" width="443" x="183" y="193"/><ellipse cx="353.75" cy="209" fill="#ADD1B2" rx="11" ry="11" style="stroke:#181818;stroke-width:1.0;"/><path d="M356.7188,214.6406 Q356.1406,214.9375 355.5,215.0781 Q354.8594,215.2344 354.1563,215.2344 Q351.6563,215.2344 350.3281,213.5938 Q349.0156,211.9375 349.0156,208.8125 Q349.0156,205.6875 350.3281,204.0313 Q351.6563,202.375 354.1563,202.375 Q354.8594,202.375 355.5,202.5313 Q356.1563,202.6875 356.7188,202.9844 L356.7188,205.7031 Q356.0938,205.125 355.5,204.8594 Q354.9063,204.5781 354.2813,204.5781 Q352.9375,204.5781 352.25,205.6563 Q351.5625,206.7188 351.5625,208.8125 Q351.5625,210.9063 352.25,211.9844 Q352.9375,213.0469 354.2813,213.0469 Q354.9063,213.0469 355.5,212.7813 Q356.0938,212.5 356.7188,211.9219 L356.7188,214.6406 Z " fill="#000000"/><text fill="#000000" font-family="sans-serif" font-size="14" lengthAdjust="spacing" textLength="93" x="374.25" y="213.8467">QuestionPool</text><line style="stroke:#181818;stroke-width:0.5;" x1="184" x2="625" y1="225" y2="225"/><ellipse cx="194" cy="238.6484" fill="#84BE84" rx="3" ry="3" style="stroke:#038048;stroke-width:1.0;"/><text fill="#000000" font-family="sans-serif" font-size="14" lengthAdjust="spacing" textLength="417" x="203" y="241.9951">__init__(self, title: str, questions: list[EssayQuestion] = None)</text><ellipse cx="194" cy="254.9453" fill="#84BE84" rx="3" ry="3" style="stroke:#038048;stroke-width:1.0;"/><text fill="#000000" font-family="sans-serif" font-size="14" lengthAdjust="spacing" textLength="135" x="203" y="258.292">__eq__(self) -&gt; bool</text><ellipse cx="194" cy="271.2422" fill="#84BE84" rx="3" ry="3" style="stroke:#038048;stroke-width:1.0;"/><text fill="#000000" font-family="sans-serif" font-size="14" lengthAdjust="spacing" textLength="285" x="203" y="274.5889">__iter__(self) -&gt; Iterator&lt;EssayQuestion&gt;</text><ellipse cx="194" cy="287.5391" fill="#84BE84" rx="3" ry="3" style="stroke:#038048;stroke-width:1.0;"/><text fill="#000000" font-family="sans-serif" font-size="14" lengthAdjust="spacing" textLength="133" x="203" y="290.8857">__repr__(self) -&gt; str</text></g><!--class EssayQuestion--><g id="elem_EssayQuestion"><rect codeLine="11" fill="#F1F1F1" height="178.375" id="EssayQuestion" rx="2.5" ry="2.5" style="stroke:#181818;stroke-width:0.5;" width="295" x="22" y="359"/><ellipse cx="113.75" cy="375" fill="#ADD1B2" rx="11" ry="11" style="stroke:#181818;stroke-width:1.0;"/><path d="M116.7188,380.6406 Q116.1406,380.9375 115.5,381.0781 Q114.8594,381.2344 114.1563,381.2344 Q111.6563,381.2344 110.3281,379.5938 Q109.0156,377.9375 109.0156,374.8125 Q109.0156,371.6875 110.3281,370.0313 Q111.6563,368.375 114.1563,368.375 Q114.8594,368.375 115.5,368.5313 Q116.1563,368.6875 116.7188,368.9844 L116.7188,371.7031 Q116.0938,371.125 115.5,370.8594 Q114.9063,370.5781 114.2813,370.5781 Q112.9375,370.5781 112.25,371.6563 Q111.5625,372.7188 111.5625,374.8125 Q111.5625,376.9063 112.25,377.9844 Q112.9375,379.0469 114.2813,379.0469 Q114.9063,379.0469 115.5,378.7813 Q116.0938,378.5 116.7188,377.9219 L116.7188,380.6406 Z " fill="#000000"/><text fill="#000000" font-family="sans-serif" font-size="14" lengthAdjust="spacing" textLength="103" x="134.25" y="379.8467">EssayQuestion</text><line style="stroke:#181818;stroke-width:0.5;" x1="23" x2="316" y1="391" y2="391"/><text fill="#000000" font-family="sans-serif" font-size="14" lengthAdjust="spacing" textLength="121" x="28" y="407.9951">question_text: str</text><text fill="#000000" font-family="sans-serif" font-size="14" lengthAdjust="spacing" textLength="271" x="28" y="424.292">feedback_correct: Optional[str] = None</text><text fill="#000000" font-family="sans-serif" font-size="14" lengthAdjust="spacing" textLength="283" x="28" y="440.5889">feedback_incorrect: Optional[str] = None</text><text fill="#000000" font-family="sans-serif" font-size="14" lengthAdjust="spacing" textLength="98" x="28" y="456.8857">points: int = 0</text><line style="stroke:#181818;stroke-width:0.5;" x1="23" x2="316" y1="464.1875" y2="464.1875"/><ellipse cx="33" cy="477.8359" fill="#84BE84" rx="3" ry="3" style="stroke:#038048;stroke-width:1.0;"/><text fill="#000000" font-family="sans-serif" font-size="14" lengthAdjust="spacing" textLength="143" x="42" y="481.1826">__init__(self, text: str)</text><ellipse cx="33" cy="494.1328" fill="#84BE84" rx="3" ry="3" style="stroke:#038048;stroke-width:1.0;"/><text fill="#000000" font-family="sans-serif" font-size="14" lengthAdjust="spacing" textLength="135" x="42" y="497.4795">__eq__(self) -&gt; bool</text><ellipse cx="33" cy="510.4297" fill="#84BE84" rx="3" ry="3" style="stroke:#038048;stroke-width:1.0;"/><text fill="#000000" font-family="sans-serif" font-size="14" lengthAdjust="spacing" textLength="133" x="42" y="513.7764">__repr__(self) -&gt; str</text><ellipse cx="33" cy="526.7266" fill="#84BE84" rx="3" ry="3" style="stroke:#038048;stroke-width:1.0;"/><text fill="#000000" font-family="sans-serif" font-size="14" lengthAdjust="spacing" textLength="123" x="42" y="530.0732">__str__(self) -&gt; str</text></g><!--class QuestionBuilder--><g id="elem_QuestionBuilder"><rect fill="#F1F1F1" height="32" id="QuestionBuilder" rx="2.5" ry="2.5" style="stroke:#181818;stroke-width:0.5;" width="143" x="7" y="100"/><ellipse cx="22" cy="116" fill="#ADD1B2" rx="11" ry="11" style="stroke:#181818;stroke-width:1.0;"/><path d="M24.9688,121.6406 Q24.3906,121.9375 23.75,122.0781 Q23.1094,122.2344 22.4063,122.2344 Q19.9063,122.2344 18.5781,120.5938 Q17.2656,118.9375 17.2656,115.8125 Q17.2656,112.6875 18.5781,111.0313 Q19.9063,109.375 22.4063,109.375 Q23.1094,109.375 23.75,109.5313 Q24.4063,109.6875 24.9688,109.9844 L24.9688,112.7031 Q24.3438,112.125 23.75,111.8594 Q23.1563,111.5781 22.5313,111.5781 Q21.1875,111.5781 20.5,112.6563 Q19.8125,113.7188 19.8125,115.8125 Q19.8125,117.9063 20.5,118.9844 Q21.1875,120.0469 22.5313,120.0469 Q23.1563,120.0469 23.75,119.7813 Q24.3438,119.5 24.9688,118.9219 L24.9688,121.6406 Z " fill="#000000"/><text fill="#000000" font-family="sans-serif" font-size="14" lengthAdjust="spacing" textLength="111" x="36" y="120.8467">QuestionBuilder</text></g><!--class QuestionPoolBuilder--><g id="elem_QuestionPoolBuilder"><rect fill="#F1F1F1" height="32" id="QuestionPoolBuilder" rx="2.5" ry="2.5" style="stroke:#181818;stroke-width:0.5;" width="173" x="318" y="7"/><ellipse cx="333" cy="23" fill="#ADD1B2" rx="11" ry="11" style="stroke:#181818;stroke-width:1.0;"/><path d="M335.9688,28.6406 Q335.3906,28.9375 334.75,29.0781 Q334.1094,29.2344 333.4063,29.2344 Q330.9063,29.2344 329.5781,27.5938 Q328.2656,25.9375 328.2656,22.8125 Q328.2656,19.6875 329.5781,18.0313 Q330.9063,16.375 333.4063,16.375 Q334.1094,16.375 334.75,16.5313 Q335.4063,16.6875 335.9688,16.9844 L335.9688,19.7031 Q335.3438,19.125 334.75,18.8594 Q334.1563,18.5781 333.5313,18.5781 Q332.1875,18.5781 331.5,19.6563 Q330.8125,20.7188 330.8125,22.8125 Q330.8125,24.9063 331.5,25.9844 Q332.1875,27.0469 333.5313,27.0469 Q334.1563,27.0469 334.75,26.7813 Q335.3438,26.5 335.9688,25.9219 L335.9688,28.6406 Z " fill="#000000"/><text fill="#000000" font-family="sans-serif" font-size="14" lengthAdjust="spacing" textLength="141" x="347" y="27.8467">QuestionPoolBuilder</text></g><!--reverse link QuestionPool to EssayQuestion--><g id="link_QuestionPool_EssayQuestion"><path codeLine="25" d="M334.853,305.9225 C313.094,324.4865 297.024,338.198 272.66,358.985 " fill="none" id="QuestionPool-backto-EssayQuestion" style="stroke:#181818;stroke-width:1.0;"/><polygon fill="none" points="343.982,298.134,336.8213,298.9853,334.853,305.9225,342.0137,305.0713,343.982,298.134" style="stroke:#181818;stroke-width:1.0;"/></g><!--link QuestionBuilder to EssayQuestion--><g id="link_QuestionBuilder_EssayQuestion"><path codeLine="26" d="M78.2101,132.357 C78.005,163.997 79.5534,238.471 96.5,298 C102.297,318.363 108.2365,333.8832 117.3885,353.4082 " fill="none" id="QuestionBuilder-to-EssayQuestion" style="stroke:#181818;stroke-width:1.0;"/><polygon fill="#181818" points="119.935,358.841,119.7371,348.9941,117.8129,354.3137,112.4934,352.3895,119.935,358.841" style="stroke:#181818;stroke-width:1.0;"/><text fill="#000000" font-family="sans-serif" font-size="13" lengthAdjust="spacing" textLength="67" x="97.5" y="250.0669">constructs</text></g><!--link QuestionPoolBuilder to QuestionPool--><g id="link_QuestionPoolBuilder_QuestionPool"><path codeLine="27" d="M404.5,39.156 C404.5,70.292 404.5,136.72 404.5,186.663 " fill="none" id="QuestionPoolBuilder-to-QuestionPool" style="stroke:#181818;stroke-width:1.0;"/><polygon fill="#181818" points="404.5,192.663,408.5,183.663,404.5,187.663,400.5,183.663,404.5,192.663" style="stroke:#181818;stroke-width:1.0;"/><text fill="#000000" font-family="sans-serif" font-size="13" lengthAdjust="spacing" textLength="67" x="405.5" y="120.5669">constructs</text></g><!--SRC=[ZL5DImCn4BtdLmmzMMp0yw8z21wy-74k4hBPAOPcasrc5YpYVtUsDBef1SqXPFC-TjxBk-yGi1_u03tsBMPIoWLB1AyZ4liKNr8AwbDTWp4-UZRcYZ1iLy2U0pP0d5UmFt6fWU29Dmz4zb0Ctk0EdbB4fG9Pam_kJovBq6jefnyKo3FcEVWetvPJlgqirp_yZ4F5bt7KLubGQIJ392gZ6iOFFev_lDuYTgrrE-DIpkW4UHuccWqRePG8DTN7lyb3yf6b5jdb-aRz1gswBBFygwDBcGicvmjrgFbZGjBwh9fok1zzw323rgAjA0qidBmlvz4nBIg_IZG7pZJV]--></g></svg>